<?xml version="1.0" standalone="no"?>
<!DOCTYPE svg PUBLIC "-//W3C//DTD SVG 20010904//EN"
 "http://www.w3.org/TR/2001/REC-SVG-20010904/DTD/svg10.dtd">
<svg version="1.0" xmlns="http://www.w3.org/2000/svg"
 width="861.000000pt" height="830.000000pt" viewBox="0 0 861.000000 830.000000"
 preserveAspectRatio="xMidYMid meet">

<g transform="translate(0.000000,830.000000) scale(0.100000,-0.100000)"
fill="#000000" stroke="none">
<path d="M0 4150 l0 -4150 4305 0 4305 0 0 4150 0 4150 -4305 0 -4305 0 0
-4150z m4483 3447 c40 -17 61 -55 55 -98 -4 -24 3 -45 29 -88 19 -31 36 -66
39 -78 8 -30 14 -29 89 8 72 35 105 35 122 -1 10 -21 7 -47 -18 -154 -16 -71
-28 -130 -26 -130 1 -1 17 -12 36 -25 31 -22 37 -23 68 -12 42 15 84 2 108
-35 45 -70 -30 -164 -109 -135 -16 7 -26 7 -26 1 0 -5 -18 -19 -39 -30 -22
-11 -42 -24 -45 -29 -3 -5 1 -28 10 -52 8 -24 24 -75 34 -113 18 -63 18 -72 5
-93 -20 -29 -41 -29 -128 2 -38 14 -71 24 -72 23 -34 -50 -75 -146 -75 -176 0
-47 -21 -77 -64 -92 -63 -21 -121 23 -119 90 1 22 -2 42 -8 45 -5 4 -23 33
-39 65 -16 32 -34 61 -38 64 -5 3 -38 -6 -73 -19 -76 -30 -100 -31 -124 -5
-18 20 -18 22 0 78 10 31 26 84 35 118 l17 60 -48 36 c-45 33 -52 35 -79 25
-23 -9 -36 -8 -64 6 -90 43 -31 195 62 161 22 -8 35 -5 75 19 26 16 47 31 47
33 0 3 -14 62 -30 131 -28 116 -29 128 -15 150 19 28 57 30 93 4 15 -10 44
-26 65 -34 l37 -16 31 62 c18 34 40 73 50 88 11 16 15 30 9 39 -20 33 20 105
64 113 11 2 22 5 24 6 1 0 17 -5 35 -12z m-2897 -104 c15 -49 31 -93 35 -99 5
-6 28 -16 51 -24 24 -7 64 -23 90 -36 l46 -24 64 45 c35 25 68 48 75 51 15 7
153 -103 153 -122 0 -17 -45 -108 -72 -147 l-20 -28 30 -77 c17 -42 33 -89 37
-104 6 -23 15 -29 63 -39 32 -6 72 -16 90 -21 l32 -10 0 -93 c0 -109 2 -106
-100 -125 -36 -7 -70 -18 -76 -24 -7 -6 -27 -47 -46 -91 l-34 -80 43 -80 c23
-44 43 -88 43 -97 0 -16 -54 -65 -112 -102 -27 -17 -27 -17 -95 34 -76 58 -69
57 -189 9 l-81 -33 -28 -88 c-31 -100 -32 -101 -135 -96 l-65 3 -30 92 -30 93
-64 21 c-36 12 -79 30 -95 40 l-31 18 -69 -51 -69 -51 -33 18 c-18 9 -51 34
-74 54 l-42 37 44 93 45 93 -37 86 -37 87 -80 16 c-43 8 -84 19 -91 23 -8 5
-12 39 -12 101 l0 94 53 15 c28 8 70 18 92 23 38 8 41 11 61 73 11 36 28 79
37 97 16 31 16 32 -34 123 l-51 92 24 25 c12 14 44 43 70 65 l47 39 55 -40
c87 -65 95 -67 152 -38 27 14 69 31 93 38 23 7 45 18 46 23 2 6 15 50 30 99
l26 87 89 0 89 0 27 -87z m2284 32 c39 -20 60 -53 60 -91 0 -36 -21 -61 -108
-129 -28 -22 -51 -43 -52 -47 0 -4 16 -24 35 -45 19 -21 40 -51 47 -67 11 -27
10 -31 -23 -59 -58 -49 -88 -57 -200 -48 -4 1 -19 20 -34 42 l-27 42 70 71 70
71 -59 65 c-35 38 -59 74 -59 87 0 19 6 22 52 25 42 2 55 7 63 24 34 69 100
93 165 59z m2220 -95 c0 -82 -3 -100 -15 -100 -12 0 -15 18 -15 100 0 82 3
100 15 100 12 0 15 -18 15 -100z m-815 65 c0 -13 -8 -21 -22 -23 -17 -3 -23 2
-23 16 0 10 3 22 7 26 13 13 38 1 38 -19z m2481 6 c67 -41 64 8 64 -990 l0
-900 -77 -3 -78 -3 3 -190 c3 -166 6 -193 22 -210 31 -35 210 -323 210 -338 0
-4 -160 -7 -356 -7 -303 0 -355 2 -351 14 7 18 182 290 214 332 22 30 23 38
23 217 l0 187 -80 0 -80 0 0 878 c0 500 4 894 10 917 6 26 23 53 49 78 l40 37
178 0 c157 0 182 -2 209 -19z m-5286 -12 c9 -16 8 -23 -5 -33 -14 -10 -16 -32
-13 -173 3 -142 5 -163 22 -182 11 -12 23 -18 27 -14 4 5 9 98 12 208 3 110 9
200 14 199 30 -1 83 -18 83 -25 0 -5 -13 -12 -30 -15 -28 -6 -30 -9 -30 -55 0
-48 1 -49 30 -49 20 0 30 -5 30 -15 0 -10 -10 -15 -30 -15 l-30 0 0 -96 c0
-80 3 -99 18 -111 13 -11 14 -16 4 -20 -7 -3 -26 -16 -41 -29 -36 -30 -35 -30
-75 1 -18 14 -43 25 -54 25 -28 0 -29 20 -2 27 18 5 20 14 20 104 l0 98 -27 3
c-34 4 -33 22 2 26 23 3 25 7 25 52 0 45 -2 49 -25 52 -32 4 -37 22 -8 26 12
2 27 10 33 18 17 20 37 17 50 -7z m691 -4 c30 -16 49 -49 49 -86 0 -17 -8 -19
-87 -21 -85 -2 -84 -2 32 -8 l120 -5 2 -410 c2 -301 6 -416 15 -434 11 -20 10
-25 -7 -37 -32 -24 -41 -15 -37 39 2 15 -11 17 -146 17 l-149 0 5 -30 c4 -27
2 -30 -22 -30 -31 0 -44 24 -28 51 8 13 12 84 12 215 l0 196 -37 -33 c-21 -18
-54 -52 -73 -76 -36 -44 -63 -55 -74 -27 -3 9 -6 50 -6 92 0 88 6 102 103 222
33 41 65 81 71 89 6 8 13 46 16 85 l5 71 40 3 c40 3 40 3 37 41 -3 32 1 42 28
64 37 31 85 35 131 12z m3776 -45 l-6 -50 43 0 c23 0 45 -2 48 -6 3 -3 -32
-66 -78 -141 -46 -75 -84 -140 -84 -144 0 -4 14 -17 30 -29 17 -12 30 -30 30
-41 0 -34 -76 -197 -86 -186 -3 2 5 44 16 93 l21 89 -41 38 c-42 41 -42 42
-20 122 8 26 50 271 50 288 0 6 30 13 64 16 17 1 18 -4 13 -49z m-1100 -47
c52 -81 66 -113 49 -113 -16 0 -96 119 -96 143 0 29 15 19 47 -30z m527 38 c8
-12 -85 -153 -98 -148 -16 6 -12 16 35 91 40 64 52 75 63 57z m-1086 -75 c5
-24 -10 -38 -31 -30 -20 7 -23 40 -4 47 19 8 32 2 35 -17z m139 8 c2 -7 -4
-19 -13 -29 -15 -15 -19 -15 -32 -1 -20 20 -8 48 20 44 12 -2 23 -8 25 -14z
m296 -116 c34 -24 66 -46 72 -50 6 -5 6 -11 -2 -19 -10 -10 -26 -3 -75 31 -67
47 -80 59 -72 72 8 12 11 11 77 -34z m795 30 c-3 -7 -35 -35 -72 -61 -52 -37
-71 -46 -80 -37 -8 9 -5 16 14 28 13 10 43 31 65 49 41 32 80 43 73 21z
m-4298 -43 c0 -33 2 -35 35 -35 24 0 35 -5 35 -15 0 -10 -11 -15 -35 -15 -33
0 -35 -2 -35 -35 0 -44 -18 -46 -22 -2 -2 27 -8 33 -31 35 -31 4 -32 25 -1 31
23 4 34 19 34 49 0 12 5 22 10 22 6 0 10 -16 10 -35z m3953 19 c25 -8 66 -33
91 -55 102 -90 127 -223 65 -340 -55 -102 -140 -147 -262 -137 -77 7 -135 35
-195 96 l-46 47 34 -50 c19 -27 26 -44 16 -36 -62 51 -95 209 -62 300 53 146
214 224 359 175z m-854 -50 c45 -57 9 -136 -62 -136 -29 0 -42 -6 -54 -25 -21
-31 -11 -49 40 -76 41 -21 49 -47 15 -47 -23 0 -58 -26 -58 -43 0 -25 34 -47
72 -47 82 0 122 -94 62 -147 -31 -28 -73 -29 -107 -3 -36 28 -42 65 -18 106
14 24 17 34 7 34 -7 0 -23 11 -35 24 -27 29 -22 56 15 81 l25 16 -36 33 c-19
18 -35 38 -35 45 0 16 38 51 56 51 12 0 10 7 -10 31 -33 38 -33 73 -1 104 35
36 96 35 124 -1z m-1942 -92 c98 -112 103 -123 103 -228 0 -61 -4 -94 -12 -96
-6 -2 -44 30 -84 71 l-73 76 -1 118 c0 64 4 117 9 117 4 0 31 -26 58 -58z
m2351 -144 c-3 -9 -30 -13 -88 -13 -58 0 -85 4 -87 13 -4 9 18 12 87 12 69 0
91 -3 88 -12z m880 0 c-3 -9 -31 -14 -83 -16 -83 -3 -110 2 -100 18 10 15 188
13 183 -2z m-4050 -191 l3 -88 -28 3 c-27 3 -28 5 -31 68 -4 87 3 112 31 108
21 -3 22 -9 25 -91z m1303 16 c-46 -51 -76 -102 -94 -155 -9 -25 -27 -23 -27
3 0 62 135 248 161 222 9 -9 -1 -26 -40 -70z m1949 -48 c-26 -31 -140 -106
-150 -100 -18 11 -9 20 70 78 44 32 79 52 84 47 5 -6 4 -16 -4 -25z m632 -22
c62 -42 86 -73 57 -73 -17 0 -139 94 -139 108 0 19 10 15 82 -35z m-392 -31
c-13 -5 -78 17 -85 28 -3 4 17 1 44 -8 28 -10 46 -18 41 -20z m-140 -23 c0
-17 -63 -118 -77 -123 -26 -10 -21 12 17 72 37 57 60 77 60 51z m412 -46 c26
-40 34 -61 27 -68 -12 -12 -30 9 -65 78 -35 68 -8 61 38 -10z m544 -33 c34
-80 138 -319 224 -513 29 -65 50 -120 48 -122 -7 -7 -668 -10 -668 -3 0 4 36
85 81 180 44 95 112 245 150 333 39 88 77 170 85 183 25 38 46 23 80 -58z
m-4247 48 c5 -13 7 -26 4 -30 -2 -5 -42 -8 -89 -8 -66 0 -86 3 -90 15 -13 32
15 45 93 45 67 0 74 -2 82 -22z m4559 -34 c-5 -42 -28 -43 -28 -1 0 18 3 37 7
40 12 13 25 -10 21 -39z m-1078 -85 c0 -81 -3 -99 -15 -99 -12 0 -15 18 -15
98 0 54 3 102 6 105 17 17 24 -13 24 -104z m960 41 c0 -47 -3 -60 -15 -60 -12
0 -15 13 -15 60 0 47 3 60 15 60 12 0 15 -13 15 -60z m-4419 -22 c2 -45 2 -88
0 -100 -1 -5 -50 -8 -111 -8 l-110 0 0 68 c0 38 3 72 7 75 3 4 53 7 110 7
l103 0 1 -42z m2669 -68 c0 -44 2 -49 29 -58 27 -10 29 -8 38 21 9 32 63 77
92 77 9 0 30 -9 48 -20 60 -36 52 -122 -13 -152 -36 -17 -25 -31 43 -53 70
-23 160 -81 169 -109 7 -23 -5 -35 -80 -80 -39 -24 -72 -36 -96 -36 -44 0 -74
-19 -65 -42 4 -10 15 -20 25 -23 30 -10 52 -42 53 -81 1 -44 -38 -84 -83 -84
-34 0 -83 38 -100 79 -11 28 -10 31 29 66 l41 37 -31 43 c-21 30 -29 50 -25
62 7 16 10 15 28 -9 22 -31 37 -31 120 4 96 41 68 114 -57 150 -27 8 -49 19
-49 24 1 5 4 18 8 29 7 25 -50 65 -94 65 -27 0 -30 -3 -30 -30 0 -26 -4 -30
-26 -30 -15 0 -23 4 -19 11 13 20 -4 59 -27 59 -33 0 -109 -52 -102 -70 14
-34 8 -44 -34 -56 -63 -19 -111 -52 -119 -82 -8 -32 24 -60 98 -86 46 -17 51
-17 68 -2 38 34 42 11 9 -51 -23 -43 -23 -43 -3 -57 66 -47 63 -40 35 -93 -21
-39 -32 -50 -62 -57 -71 -18 -117 27 -104 99 5 27 16 41 42 57 55 32 39 68
-30 68 -57 0 -186 80 -186 116 0 27 137 106 208 120 17 3 32 11 32 16 0 5 -16
24 -35 42 -27 26 -35 41 -35 68 0 102 139 116 178 17 10 -27 19 -36 26 -29 5
5 18 10 28 10 15 0 18 8 18 49 0 30 5 51 13 54 21 8 27 -3 27 -53z m-2094 25
c-11 -16 -16 -46 -16 -90 l0 -65 -90 0 -90 0 0 74 c0 41 -4 78 -10 81 -29 18
1 25 106 25 l116 0 -16 -25z m3961 -13 c2 -23 -2 -32 -12 -32 -11 0 -15 11
-15 36 0 45 23 41 27 -4z m-797 8 c0 -11 -4 -20 -10 -20 -5 0 -10 9 -10 20 0
11 5 20 10 20 6 0 10 -9 10 -20z m-560 -4 c0 -18 -16 -29 -30 -21 -13 8 -1 35
16 35 8 0 14 -6 14 -14z m-2169 -26 c20 -6 53 -24 74 -40 28 -22 44 -28 62
-24 44 11 105 -74 88 -125 -5 -15 1 -21 28 -30 61 -20 117 -101 117 -169 0
-47 -29 -117 -66 -160 -29 -34 -183 -150 -286 -216 l-27 -17 -134 96 c-74 53
-153 116 -176 140 -82 89 -89 217 -14 291 31 31 48 39 79 35 7 -1 9 9 7 22 -9
44 17 110 57 148 53 51 122 68 191 49z m-963 -321 l2 -266 -35 -27 c-33 -26
-35 -30 -35 -86 0 -53 -3 -61 -25 -76 -23 -15 -25 -21 -19 -60 4 -30 2 -49 -8
-63 -12 -17 -14 -49 -10 -156 4 -117 2 -138 -13 -162 -17 -25 -18 -26 -31 -8
-10 14 -14 58 -14 171 0 99 -4 155 -11 159 -7 5 -8 25 -4 54 6 44 5 48 -19 59
-24 11 -26 16 -26 82 0 70 0 71 -35 91 l-35 21 0 262 c0 145 3 266 7 270 4 3
75 5 157 4 l151 -3 3 -266z m4479 201 c3 -20 -11 -27 -21 -11 -7 11 4 44 12
36 3 -3 7 -14 9 -25z m-3093 -53 c101 -124 129 -307 69 -460 -21 -55 -73 -136
-107 -166 -35 -33 -35 -7 0 40 76 102 111 221 101 345 -8 83 -33 150 -83 221
-19 27 -34 51 -34 55 0 19 21 5 54 -35z m-784 -7 c0 -20 -5 -20 -172 -18 -155
3 -173 5 -176 21 -3 16 10 17 172 17 170 0 176 -1 176 -20z m2050 -23 c26 -20
50 -60 50 -84 0 -57 -48 -103 -107 -103 -42 0 -92 47 -100 92 -5 33 -2 41 30
73 28 28 43 35 74 35 21 0 45 -6 53 -13z m-878 -90 c-2 -4 -8 -5 -13 -2 -11 7
-12 68 -1 79 7 8 21 -63 14 -77z m303 -267 c0 -98 -3 -134 -12 -137 -10 -4
-13 28 -13 137 0 109 3 141 13 138 9 -4 12 -40 12 -138z m-1611 98 c13 -50 8
-58 -35 -58 -50 0 -49 -23 2 -30 37 -5 47 -28 35 -76 -6 -24 -7 -24 -141 -24
l-135 0 0 40 c0 22 0 43 0 48 -1 4 14 9 31 12 46 7 50 30 5 30 -34 0 -36 2
-36 33 0 19 3 37 7 40 3 4 64 7 134 7 123 0 127 -1 133 -22z m1277 6 c16 -14
20 -14 43 1 24 16 28 16 50 1 16 -10 26 -27 28 -48 2 -27 8 -34 30 -36 16 -2
30 -11 33 -23 8 -26 0 -36 -35 -44 -24 -5 -30 -12 -30 -34 0 -48 -45 -68 -80
-36 -15 14 -18 14 -30 0 -7 -8 -26 -15 -41 -15 -22 0 -32 6 -39 26 -6 14 -7
30 -4 36 8 13 -14 28 -43 28 -19 0 -23 6 -23 29 0 26 4 30 32 33 26 2 32 7 32
30 2 27 31 68 49 68 6 0 18 -7 28 -16z m1747 -36 c10 -36 21 -51 48 -68 l36
-21 53 30 52 30 42 -43 c22 -23 41 -46 41 -52 0 -5 -14 -29 -31 -52 -28 -39
-30 -45 -19 -72 10 -24 23 -32 71 -46 l59 -17 0 -52 c0 -50 -1 -53 -32 -65
-112 -41 -116 -49 -71 -131 l28 -48 -40 -41 c-21 -22 -42 -40 -47 -40 -4 0
-27 14 -53 31 l-45 30 -43 -23 c-35 -20 -43 -30 -51 -66 l-9 -42 -68 0 -68 0
-8 42 c-7 36 -15 47 -50 66 l-41 23 -48 -31 c-26 -16 -51 -30 -56 -30 -4 0
-25 19 -47 42 l-39 42 23 31 c61 82 54 105 -38 133 l-62 20 -3 54 -3 55 61 18
c48 14 65 25 76 47 14 28 14 31 -20 77 l-34 49 41 46 42 47 49 -31 50 -32 43
21 c24 11 43 26 43 33 0 7 5 30 11 51 l10 38 67 -3 66 -3 14 -47z m-5175 -2
c35 -13 82 -33 104 -44 l40 -21 34 35 c33 34 69 45 69 21 0 -7 -13 -26 -29
-41 -37 -36 -80 -131 -88 -195 -5 -46 -4 -49 18 -53 15 -2 24 -9 23 -19 -1
-12 19 -25 65 -43 37 -14 71 -25 76 -25 12 1 120 118 114 122 -65 49 -189 162
-180 165 15 5 100 -52 166 -110 l45 -40 48 40 c67 55 152 112 168 112 33 0 5
-32 -76 -88 -25 -17 -59 -44 -77 -59 l-32 -28 57 -63 57 -62 85 32 c47 17 86
32 88 34 2 1 -5 35 -14 75 -15 69 -63 173 -106 228 -14 18 -16 27 -7 35 8 8
22 -2 51 -36 l40 -47 57 28 c110 55 185 66 253 38 32 -13 37 -13 51 0 9 9 23
13 32 9 15 -5 14 -10 -9 -37 -54 -64 -17 -192 68 -233 40 -19 48 -46 14 -46
-63 0 -138 105 -146 205 -5 63 -5 65 -39 76 -48 15 -108 4 -193 -37 -65 -31
-72 -37 -65 -57 4 -12 17 -58 28 -102 12 -44 22 -81 23 -83 1 -2 36 6 76 17
82 23 158 27 191 10 48 -25 67 -51 67 -93 0 -49 -19 -83 -93 -159 l-55 -58 71
-63 c72 -62 137 -161 137 -207 0 -31 -28 -21 -39 14 -20 61 -68 124 -137 181
l-67 55 -41 -29 c-22 -17 -46 -30 -53 -30 -31 0 -5 -19 103 -75 131 -68 157
-91 152 -130 -6 -51 -46 -69 -163 -73 -92 -4 -105 -2 -105 12 0 13 12 16 63
17 124 1 191 36 153 78 -16 18 -220 130 -251 139 -5 1 -22 -42 -36 -97 l-26
-100 28 -6 c30 -7 37 -27 19 -55 -8 -12 -13 -11 -34 9 l-25 23 -41 -83 c-23
-46 -56 -99 -74 -117 -37 -40 -95 -72 -131 -72 -94 0 -218 125 -300 304 -19
39 -44 81 -58 94 l-25 23 -31 -67 c-17 -36 -31 -67 -31 -69 0 -1 20 2 45 8 48
11 61 7 52 -17 -3 -8 -27 -17 -56 -21 -27 -4 -55 -13 -61 -20 -6 -7 -16 -40
-22 -72 -13 -69 1 -110 42 -130 36 -17 110 1 172 43 39 27 53 32 59 22 14 -21
12 -22 -53 -60 -97 -57 -159 -65 -226 -29 -40 21 -53 102 -28 184 l14 47 -76
0 c-112 0 -173 35 -159 92 5 19 34 39 129 91 68 36 132 72 142 80 19 14 19 15
-5 27 -13 7 -34 22 -46 33 l-22 20 -57 -34 c-31 -19 -93 -69 -139 -111 -46
-43 -86 -78 -89 -78 -33 0 83 125 182 195 l67 48 -56 58 c-34 34 -64 76 -74
104 -17 43 -17 48 -2 81 26 54 69 74 157 74 41 0 89 -4 107 -9 l31 -9 7 51 c7
48 23 109 39 148 6 13 -14 26 -101 63 -59 26 -112 52 -117 57 -18 16 21 10 87
-15z m4320 -13 c21 -6 22 -19 2 -27 -10 -4 -15 -20 -15 -51 0 -38 -3 -45 -20
-45 -16 0 -20 7 -20 34 0 19 -7 41 -15 50 -8 8 -15 18 -15 22 0 14 35 33 50
28 8 -4 23 -9 33 -11z m-4537 -44 c7 -12 -15 -31 -28 -23 -4 3 -8 12 -8 20 0
17 26 19 36 3z m39 -50 c10 -15 -4 -99 -16 -99 -5 0 -9 25 -9 55 0 51 10 69
25 44z m6033 -151 c10 -13 22 -67 112 -498 37 -182 40 -206 40 -355 0 -134 -3
-166 -19 -200 -33 -71 -110 -125 -178 -125 -40 0 -24 31 25 48 55 18 108 70
121 119 14 50 14 321 0 361 -5 16 -23 90 -38 164 l-27 133 -72 1 c-43 1 -75
-3 -81 -10 -5 -6 -21 -70 -36 -141 -14 -72 -29 -140 -32 -152 -5 -22 -3 -23
76 -23 74 0 81 -2 81 -20 0 -18 -7 -20 -85 -20 l-85 0 0 -132 c0 -73 4 -138 8
-144 14 -22 52 -34 107 -34 48 0 56 -3 53 -17 -3 -15 -16 -19 -75 -21 -67 -3
-74 -1 -104 26 l-32 29 -3 154 c-2 148 -1 159 36 314 21 88 46 201 55 250 22
120 53 255 65 283 7 17 18 22 44 22 18 0 38 -6 44 -12z m-6133 -15 c27 -37
-16 -83 -54 -57 -11 8 -21 23 -21 33 0 39 52 56 75 24z m2789 -155 c50 -79 90
-144 90 -145 1 -1 51 18 112 42 387 153 841 130 1206 -62 192 -101 396 -278
517 -448 169 -239 257 -501 268 -797 l6 -158 211 -1 c116 -1 218 -2 226 -3 12
-1 15 -18 15 -86 l0 -85 -50 -8 -51 -8 -28 -122 c-72 -312 -235 -603 -475
-850 -285 -293 -647 -482 -1026 -537 -44 -6 -95 -13 -112 -16 l-33 -5 0 -109
c0 -98 2 -110 18 -110 35 -1 100 -39 148 -87 40 -40 61 -52 114 -67 89 -25
146 -56 208 -111 56 -50 82 -90 82 -125 0 -20 -1 -20 -689 -20 -380 0 -692 3
-695 8 -9 15 22 68 65 111 72 73 146 113 254 140 28 7 58 28 95 65 37 36 73
60 108 72 l52 19 0 110 0 110 -53 2 c-117 6 -331 55 -463 107 -259 100 -439
213 -612 380 -138 133 -213 224 -294 353 -118 187 -202 395 -250 613 -20 93
-22 132 -22 345 0 224 2 248 28 360 101 450 317 796 676 1084 92 75 246 181
260 181 3 0 45 -64 94 -142z m1501 122 c9 -14 101 -12 125 2 25 16 54 1 58
-30 5 -29 -37 -51 -53 -28 -17 22 -130 23 -139 1 -8 -21 -29 -19 -50 4 -14 15
-15 24 -6 40 11 22 54 29 65 11z m2173 -142 c-2 -13 -10 -23 -18 -23 -8 0 -16
10 -18 23 -3 17 2 22 18 22 16 0 21 -5 18 -22z m-130 -150 c-2 -40 -7 -73 -13
-73 -5 0 -11 33 -13 73 -2 60 0 72 13 72 13 0 15 -12 13 -72z m132 47 c0 -25
-23 -35 -35 -15 -10 16 2 40 20 40 9 0 15 -9 15 -25z m-1619 -62 c32 -31 59
-61 59 -67 0 -7 -26 -38 -59 -70 -57 -56 -59 -58 -82 -42 -28 18 -109 102
-109 113 0 8 120 123 128 123 2 0 30 -25 63 -57z m1615 -45 c-3 -13 -6 -31 -6
-40 0 -10 -4 -18 -10 -18 -5 0 -10 18 -10 40 0 30 4 40 16 40 12 0 15 -6 10
-22z m-4786 -203 c7 -18 17 -25 35 -25 29 0 32 -16 9 -41 -13 -15 -14 -24 -5
-50 15 -43 5 -53 -29 -29 -28 20 -28 20 -53 0 -46 -36 -59 -23 -31 32 15 28
14 31 -5 45 -31 21 -27 43 8 43 22 0 30 6 35 25 4 14 11 25 16 25 6 0 15 -11
20 -25z m3578 -204 c-3 -140 -5 -166 -18 -166 -13 0 -15 26 -18 160 -1 87 0
165 2 172 3 7 12 10 21 7 13 -5 15 -29 13 -173z m-102 147 c4 -6 -7 -23 -27
-41 -19 -16 -54 -47 -78 -68 l-44 -39 62 -65 c60 -65 74 -89 47 -83 -22 5
-166 131 -166 145 0 10 33 42 145 137 33 28 50 32 61 14z m406 -82 c4 -74 1
-86 -28 -86 -23 0 -24 3 -24 63 0 68 4 77 31 77 14 0 18 -11 21 -54z m538 -26
c0 -13 -7 -20 -20 -20 -22 0 -28 25 -7 33 22 10 27 7 27 -13z m-940 -19 c15
-29 13 -37 -15 -49 -19 -9 -27 -8 -40 4 -20 20 -19 41 3 53 26 15 40 13 52 -8z
m938 -48 c-5 -26 -38 -29 -38 -4 0 15 6 21 21 21 14 0 19 -5 17 -17z m-508
-18 c0 -12 -13 -15 -55 -15 -51 0 -65 7 -48 23 3 4 28 7 55 7 36 0 48 -4 48
-15z m-5474 -11 c-3 -8 -27 -45 -53 -82 -35 -48 -49 -61 -51 -48 -2 10 1 23 7
29 15 15 14 27 -4 27 -23 0 -38 36 -25 61 16 28 52 21 60 -11 l6 -25 24 33
c25 33 47 43 36 16z m5502 -28 l22 -7 0 -282 c0 -155 -4 -288 -8 -294 -12 -19
-164 -22 -185 -4 -15 12 -17 46 -17 297 0 251 2 284 16 292 19 10 138 9 172
-2z m487 -6 c4 -6 -5 -10 -19 -10 -14 0 -26 5 -26 10 0 6 9 10 19 10 11 0 23
-4 26 -10z m-5960 -23 c8 -29 -10 -77 -28 -77 -17 0 -37 20 -37 38 0 19 32 61
47 62 7 0 15 -10 18 -23z m903 -20 c2 -11 -3 -17 -16 -17 -20 0 -36 23 -24 34
11 12 37 1 40 -17z m117 3 c0 -8 -10 -16 -22 -18 -18 -3 -23 2 -23 18 0 16 5
21 23 18 12 -2 22 -10 22 -18z m113 3 c5 -17 -26 -29 -40 -15 -6 6 -7 15 -3
22 9 14 37 9 43 -7z m4830 -20 c2 -8 -6 -13 -22 -13 -17 0 -26 5 -26 16 0 19
41 16 48 -3z m-5337 -121 c25 -31 54 -69 64 -84 l17 -28 309 0 c250 0 309 3
309 13 0 8 11 24 25 37 73 69 180 -33 116 -111 -26 -33 -95 -33 -121 -1 l-18
22 -303 -2 -304 -3 -33 -80 -33 -80 -85 -1 -85 -2 -31 49 c-27 45 -33 49 -69
49 -44 0 -64 24 -37 44 8 6 22 43 32 81 9 39 20 76 25 83 4 6 29 15 56 19 35
4 55 13 68 30 28 35 48 28 98 -35z m6007 10 c6 -9 12 -21 12 -28 0 -6 12 -15
28 -18 15 -4 35 -9 44 -12 12 -4 15 0 11 16 -8 32 21 15 38 -22 17 -37 62 -73
79 -63 8 5 1 18 -22 42 -32 34 -32 35 -8 28 14 -4 33 -15 42 -26 10 -12 19
-15 23 -9 9 15 41 12 55 -5 20 -24 4 -63 -30 -70 -34 -8 -35 -11 -16 -62 8
-21 16 -45 19 -54 5 -15 11 -14 53 7 54 28 74 30 74 10 0 -8 -27 -29 -59 -46
-59 -32 -71 -48 -71 -101 0 -15 -6 -45 -14 -67 -14 -38 -13 -41 4 -47 31 -10
45 -33 30 -50 -16 -20 -39 -19 -63 2 -18 17 -21 15 -72 -42 l-53 -60 -95 -3
c-112 -4 -152 11 -205 78 -32 39 -35 40 -52 25 -26 -24 -54 -15 -58 17 -2 19
2 28 17 33 22 7 26 21 12 44 -8 12 -15 11 -50 -3 -51 -20 -71 -20 -71 -2 0 8
21 22 50 31 l51 17 -3 51 c-3 50 -5 53 -53 85 -27 19 -51 38 -53 43 -7 18 34
9 70 -16 l36 -25 16 47 c20 57 20 73 2 73 -8 0 -24 8 -36 18 -29 24 -20 60 18
68 15 3 57 19 94 36 60 28 68 30 82 15 22 -21 21 -23 -24 -77 -41 -49 -49 -69
-27 -71 6 -1 28 -3 47 -4 19 -2 50 -7 68 -11 l33 -7 -6 39 c-3 21 -8 50 -11
64 -3 14 -15 30 -27 35 -30 14 -34 58 -7 85 23 23 56 20 78 -8z m-678 -36 c0
-3 -4 -8 -10 -11 -5 -3 -10 -1 -10 4 0 6 5 11 10 11 6 0 10 -2 10 -4z m-892
-48 c-2 -24 -7 -43 -13 -43 -5 0 -11 19 -13 43 -3 33 0 42 13 42 13 0 16 -9
13 -42z m735 3 c-60 -58 -64 -116 -14 -170 52 -56 151 -63 254 -19 52 23 64
20 48 -10 -30 -56 -211 -77 -287 -34 -47 27 -94 94 -94 133 0 68 53 139 104
139 l30 0 -41 -39z m-5927 -35 c40 -12 57 -83 29 -123 -15 -22 -81 -50 -92
-39 -3 3 -8 40 -11 82 -5 79 3 99 38 90 8 -3 24 -7 36 -10z m104 -31 c0 -33 2
-35 35 -35 33 0 35 2 35 35 0 25 4 35 15 35 13 0 15 -14 13 -82 -2 -54 -7 -83
-15 -86 -9 -2 -13 9 -13 38 0 41 -1 41 -32 38 -30 -3 -33 -6 -36 -40 -2 -25
-8 -38 -18 -38 -11 0 -14 18 -14 85 0 69 3 85 15 85 10 0 15 -11 15 -35z m310
-55 c0 -18 -7 -20 -60 -20 -53 0 -60 2 -60 20 0 18 7 20 60 20 53 0 60 -2 60
-20z m4780 -60 c0 -64 -3 -80 -15 -80 -12 0 -15 15 -15 73 0 41 3 77 7 80 17
18 23 0 23 -73z m-4636 -93 c7 -11 7 -27 -3 -52 -12 -34 -11 -37 18 -71 35
-39 40 -78 14 -106 -32 -36 -103 -11 -103 36 0 12 9 35 20 51 21 32 27 90 10
100 -14 9 -13 38 2 53 15 15 28 11 42 -11z m884 -79 c8 -8 12 -45 12 -100 0
-79 -2 -88 -22 -99 -24 -13 -125 -6 -140 9 -16 16 -13 182 3 193 21 13 133 11
147 -3z m-821 -14 c3 -8 1 -20 -6 -27 -14 -14 -47 15 -37 32 10 16 36 13 43
-5z m421 -22 c2 -14 10 -22 23 -22 28 0 20 -34 -9 -38 -16 -3 -22 -10 -22 -29
0 -34 -24 -25 -28 11 -3 22 -8 27 -22 23 -23 -6 -42 14 -31 32 5 8 17 11 30 6
18 -5 21 -2 21 20 0 20 4 26 18 23 9 -2 18 -13 20 -26z m4522 19 c0 -6 -5 -13
-10 -16 -6 -4 -8 -23 -5 -44 6 -43 -13 -78 -38 -68 -22 8 -33 55 -19 78 9 13
8 20 -3 29 -26 21 -17 30 30 30 25 0 45 -4 45 -9z m1565 -16 c0 -28 -29 -25
-33 3 -3 19 0 23 15 20 10 -2 18 -12 18 -23z m-1000 -103 l40 -97 48 -3 c60
-4 58 -23 -3 -37 -42 -9 -45 -13 -74 -77 -29 -63 -33 -68 -62 -68 -29 0 -33 5
-58 65 -37 86 -46 92 -85 59 -33 -27 -38 -25 -21 7 14 25 10 24 -58 -10 -89
-46 -137 -93 -179 -178 -32 -64 -38 -87 -40 -151 -3 -89 -18 -115 -48 -82 -14
16 -16 23 -7 32 7 7 12 27 12 44 0 57 47 186 88 239 46 61 152 135 193 135 26
0 29 3 23 25 l-6 26 35 -17 c19 -9 41 -14 49 -12 8 3 29 46 47 94 35 92 49
119 60 109 3 -4 24 -50 46 -103z m-5848 26 c41 -41 53 -59 53 -83 -1 -34 -9
-47 -67 -99 l-42 -38 -51 48 c-56 53 -68 80 -50 116 11 20 88 103 100 107 2 0
28 -22 57 -51z m6718 -57 c7 -12 -26 -31 -51 -31 -16 0 -16 1 1 20 19 21 40
26 50 11z m-645 -110 c0 -12 -29 -23 -41 -15 -5 3 -7 10 -4 15 8 12 45 12 45
0z m-5590 -21 c13 -25 5 -40 -21 -40 -13 0 -19 7 -19 23 0 41 22 50 40 17z
m516 -75 c3 -8 -14 -56 -39 -107 -25 -51 -50 -110 -56 -130 l-9 -38 46 0 c73
-1 163 -23 216 -54 96 -56 109 -159 29 -225 -52 -43 -113 -61 -205 -61 -94 0
-92 10 -18 -145 43 -88 47 -101 32 -107 -9 -4 -128 -7 -263 -7 l-246 -1 1 -22
c1 -17 -5 -24 -21 -26 -19 -3 -23 1 -23 22 l0 26 -113 0 c-210 0 -417 12 -417
25 0 6 23 57 50 112 28 56 50 107 50 114 0 11 -16 13 -70 11 -93 -5 -170 19
-222 68 -34 34 -38 42 -38 88 0 45 4 57 36 92 45 50 121 79 226 87 79 6 79 6
73 32 -11 45 -55 135 -76 154 -34 32 -21 52 36 55 28 1 136 10 240 19 221 20
397 28 618 31 131 2 159 0 163 -13z m5754 -42 c30 -14 59 -25 64 -24 33 8 65
-31 45 -55 -17 -21 -45 -17 -61 9 -9 12 -39 30 -67 41 -102 36 -281 5 -289
-52 -4 -25 -27 -35 -53 -22 -35 19 -17 70 24 70 10 0 31 8 45 19 43 30 82 39
162 40 62 1 85 -4 130 -26z m-5580 -18 c0 -20 5 -25 25 -25 16 0 25 -6 25 -15
0 -9 -9 -15 -25 -15 -22 0 -25 -4 -25 -35 0 -19 -4 -35 -10 -35 -5 0 -10 13
-10 29 0 28 -22 47 -41 35 -5 -3 -9 2 -9 10 0 8 10 16 23 18 16 2 23 11 25 31
4 34 22 36 22 2z m-1399 -35 c6 -16 18 -30 26 -30 12 0 12 -2 -1 -16 -9 -8
-14 -20 -11 -25 4 -5 -3 -9 -14 -9 -19 0 -21 6 -21 55 0 62 6 69 21 25z m6360
-54 c49 -20 112 -73 154 -129 27 -35 40 -45 49 -38 8 7 48 7 117 1 139 -12
206 -32 190 -58 -6 -10 -18 -9 -56 3 -69 20 -240 31 -259 16 -14 -12 -46 -5
-46 11 0 5 -4 7 -8 4 -5 -3 -54 -14 -111 -26 -103 -21 -181 -46 -181 -59 0 -4
16 -23 36 -42 20 -18 56 -61 80 -95 l44 -61 72 -12 c40 -6 110 -24 156 -40 80
-27 82 -27 76 -7 -12 41 -57 152 -81 199 -13 27 -22 56 -20 65 5 21 99 -171
121 -249 17 -56 21 -61 118 -107 8 -4 45 73 80 166 11 29 22 51 25 48 9 -9
-17 -98 -49 -168 l-31 -67 33 -28 c18 -15 39 -32 47 -36 7 -5 31 -31 53 -58
l39 -49 20 26 c12 15 36 57 54 93 30 61 32 73 32 166 0 86 -3 106 -23 144 -16
29 -20 47 -14 53 14 14 70 -86 78 -141 15 -98 -21 -232 -88 -330 l-31 -44 18
-46 c61 -157 51 -236 -42 -322 -66 -62 -212 -115 -346 -126 l-78 -6 -26 -51
c-14 -28 -42 -73 -63 -101 -21 -27 -41 -62 -45 -76 -4 -14 -19 -40 -35 -58
-22 -24 -37 -31 -65 -31 -30 0 -37 5 -46 27 -12 32 -8 35 85 91 42 25 67 50
105 108 54 80 61 97 36 88 -8 -4 -36 -3 -61 1 -65 9 -51 29 27 35 l64 5 19 53
c23 63 52 74 42 15 -4 -21 -9 -46 -12 -55 -5 -16 0 -17 43 -12 150 18 279 67
346 132 62 60 71 152 25 250 l-20 43 -67 -63 c-36 -35 -104 -88 -151 -118 -47
-30 -89 -61 -94 -69 -18 -29 -59 -61 -78 -61 -10 0 -30 11 -44 25 -27 27 -26
54 4 88 20 22 97 24 106 1 4 -11 9 -12 18 -4 7 6 43 32 80 58 37 27 97 76 134
111 63 60 66 64 53 88 -25 47 -229 216 -243 202 -2 -2 0 -29 6 -59 20 -109
-17 -361 -55 -368 -22 -5 -21 8 9 102 26 82 33 202 19 301 -7 41 -10 45 -57
65 -47 20 -188 60 -212 60 -7 0 -12 -38 -14 -104 -3 -100 -3 -103 19 -109 36
-9 38 -1 18 54 -30 78 -18 93 15 19 32 -71 40 -80 74 -80 29 0 42 -33 42 -104
0 -29 7 -75 15 -102 8 -27 15 -62 15 -77 0 -42 -23 -28 -33 19 -4 21 -12 56
-18 77 l-10 37 -64 0 c-35 0 -66 -4 -70 -10 -3 -5 -5 -31 -4 -57 4 -143 -5
-161 -83 -170 -40 -5 -49 -2 -83 28 -37 33 -41 34 -111 31 -62 -2 -78 -6 -100
-27 -19 -18 -38 -25 -65 -25 -42 0 -49 -12 -22 -42 15 -17 15 -18 -1 -18 -9 0
-22 11 -28 25 -6 14 -21 31 -32 39 -20 12 -36 56 -76 196 -5 20 -15 26 -45 30
-33 4 -40 10 -47 35 -9 33 -2 93 14 113 6 6 24 12 40 12 16 0 30 6 32 13 1 6
11 35 20 62 16 44 37 155 29 155 -7 0 -141 -76 -167 -94 -15 -12 -43 -36 -62
-55 -27 -27 -35 -31 -39 -19 -7 18 20 76 95 202 28 47 50 88 50 92 0 3 -39 5
-87 2 -149 -7 -238 -63 -250 -159 -5 -33 1 -53 32 -114 36 -72 37 -73 56 -54
25 25 74 24 99 -1 26 -26 25 -51 -1 -84 -34 -43 -97 -31 -114 23 -3 10 -23 37
-45 60 -24 25 -45 60 -54 92 -24 81 -6 140 64 203 64 58 100 70 223 72 106 2
108 3 136 33 19 21 27 38 24 51 -12 46 34 100 87 100 10 0 42 21 72 46 54 46
100 75 173 106 50 21 160 23 206 4z m629 -226 c11 -11 20 -31 20 -45 0 -33
-42 -75 -73 -75 -42 0 -75 56 -55 93 26 49 74 61 108 27z m-5356 -306 c3 -9 6
-29 6 -45 0 -18 4 -28 10 -24 6 4 24 4 40 0 26 -6 30 -11 30 -41 0 -33 -1 -34
-40 -34 l-40 0 0 -40 c0 -22 -3 -40 -7 -41 -5 0 -16 -2 -27 -4 -34 -6 -46 6
-46 46 0 39 0 39 -40 39 -39 0 -40 1 -40 35 0 33 2 35 40 41 39 6 40 8 40 45
0 38 1 39 34 39 22 0 36 -6 40 -16z m-344 -45 c0 -38 -24 -35 -28 4 -2 19 1
27 12 27 11 0 16 -10 16 -31z m-1288 -11 c2 -17 9 -23 26 -22 12 0 22 -5 22
-13 0 -7 -11 -13 -25 -13 -20 0 -25 -5 -25 -26 0 -14 -4 -23 -10 -19 -5 3 -10
15 -10 26 0 14 -7 19 -25 19 -14 0 -25 5 -25 10 0 6 11 10 25 10 20 0 25 5 25
25 0 31 17 33 22 3z m5319 -189 c16 -16 20 -28 15 -52 -9 -43 -24 -57 -60 -57
-37 0 -49 7 -65 37 -16 31 -14 41 14 68 30 31 68 32 96 4z m-5349 -79 l37 -31
617 2 616 2 10 28 c5 16 15 29 22 29 18 0 115 -73 116 -87 0 -14 -98 -83 -118
-83 -7 0 -15 14 -19 30 l-6 30 -211 1 c-116 0 -395 0 -620 -1 l-410 -1 -40
-30 c-22 -16 -44 -29 -49 -29 -23 0 -97 65 -97 85 0 23 73 85 100 85 8 0 32
-14 52 -30z m5218 5 c0 -8 -45 -48 -100 -90 -55 -42 -100 -80 -100 -84 0 -5
46 -48 103 -97 56 -48 101 -90 100 -93 -8 -18 -46 4 -144 84 -63 51 -109 97
-109 107 0 11 45 49 118 102 64 46 120 85 125 85 4 1 7 -6 7 -14z m325 -72 c3
-43 8 -141 10 -218 4 -141 17 -213 59 -308 16 -37 16 -38 -1 -35 -27 5 -71
104 -84 188 -7 47 -9 114 -5 180 4 58 7 110 7 115 0 6 -5 38 -12 71 -12 60 -8
101 10 90 4 -3 12 -41 16 -83z m45 -22 c31 -186 143 -302 338 -351 50 -13 52
-36 3 -33 -27 1 -31 -2 -26 -18 8 -26 -24 -77 -75 -117 -49 -40 -53 -21 -5 28
18 19 41 51 49 71 l15 37 -58 22 c-114 42 -224 155 -256 263 -16 55 -20 167
-6 167 5 0 14 -31 21 -69z m-232 -118 c-3 -89 -1 -99 20 -120 27 -27 28 -53 4
-84 -26 -31 -78 -31 -104 1 -27 33 -19 71 19 95 l32 20 1 100 c0 55 3 111 7
125 7 24 7 24 15 -8 5 -18 7 -76 6 -129z m-3708 57 c21 -21 18 -46 -9 -68 -14
-12 -9 -20 49 -74 98 -90 97 -89 179 -82 61 6 71 10 71 26 0 24 29 36 42 17 5
-8 7 -58 4 -118 l-6 -104 56 -54 c55 -53 55 -54 39 -79 -9 -14 -34 -41 -56
-61 l-40 -36 7 -117 c8 -138 1 -193 -24 -188 -11 2 -18 15 -20 38 l-3 36 -84
18 -84 19 -48 -41 c-26 -22 -57 -49 -67 -61 -18 -20 -18 -22 -1 -41 17 -18 17
-21 1 -45 -20 -31 -50 -32 -70 -3 -14 19 -14 24 2 50 16 27 16 29 -8 45 -14
10 -44 35 -67 56 l-41 38 -78 -16 c-88 -18 -94 -21 -94 -41 0 -16 -36 -19 -45
-3 -4 6 -6 67 -6 136 l2 126 -58 54 -58 54 59 55 58 56 -3 107 -4 106 27 3
c18 2 28 -2 32 -15 5 -15 17 -18 81 -17 l75 1 58 54 c79 74 88 87 74 110 -17
27 -15 56 6 68 24 15 29 14 52 -9z m-740 -14 c0 -8 -18 -36 -40 -62 -22 -27
-40 -52 -40 -56 0 -7 93 -38 116 -38 7 0 26 16 41 35 32 40 43 44 43 15 0 -12
-17 -38 -39 -59 -39 -38 -56 -79 -81 -199 -12 -52 -12 -52 -49 -52 -21 0 -72
-3 -113 -6 l-75 -7 -31 -63 c-18 -35 -36 -64 -40 -64 -20 0 -19 15 4 63 31 68
31 83 -3 90 -20 4 -35 -1 -51 -16 l-24 -22 7 30 c4 17 13 55 20 85 27 117 27
124 -10 145 -39 20 -84 65 -66 65 6 0 35 -12 63 -26 32 -16 54 -22 56 -16 2 6
13 26 25 44 25 37 73 51 83 24 4 -10 18 -16 38 -16 25 0 43 12 91 60 61 62 75
70 75 46z m1180 -16 c0 -5 -5 -10 -11 -10 -5 0 -7 5 -4 10 3 6 8 10 11 10 2 0
4 -4 4 -10z m-4 -71 c-15 -33 -17 -33 -20 1 0 9 -10 15 -23 14 -36 -1 -27 24
10 28 44 5 50 -3 33 -43z m-1866 -10 c76 -34 114 -82 139 -177 13 -46 24 -50
80 -31 46 16 81 5 81 -26 0 -25 -1 -25 -80 -25 -72 0 -80 -2 -80 -19 0 -32
-29 -90 -66 -131 -51 -57 -122 -78 -201 -61 -78 18 -144 83 -163 161 -12 49
-14 52 -40 47 -28 -6 -50 7 -50 31 0 8 6 12 14 9 10 -4 13 -1 9 9 -6 17 28 19
45 2 9 -9 12 -7 12 12 1 35 36 109 68 144 33 35 117 76 157 76 17 0 50 -10 75
-21z m6370 -80 c0 -5 -51 -42 -112 -82 -62 -41 -121 -83 -132 -95 -25 -29 -86
-49 -96 -32 -6 10 -32 -1 -101 -39 -51 -28 -97 -50 -103 -48 -6 2 34 33 89 69
55 36 111 77 125 92 35 39 79 61 93 47 6 -6 16 -11 23 -11 14 0 155 91 175
113 14 15 39 6 39 -14z m-526 -74 c27 -27 46 -53 44 -63 -2 -9 -22 -29 -44
-45 -34 -24 -45 -27 -62 -18 -45 24 -34 101 15 101 l24 0 -20 29 c-42 58 -20
56 43 -4z m126 -70 c0 -1 -13 -5 -30 -7 -24 -4 -30 -1 -30 13 0 16 4 17 30 8
17 -6 30 -12 30 -14z m-1485 -9 c39 -17 55 -42 55 -89 0 -96 -132 -131 -175
-46 -28 53 -15 97 38 129 38 24 39 24 82 6z m563 -178 l3 -128 -171 0 -170 0
0 114 c0 63 3 122 6 130 6 14 27 16 168 14 l161 -3 3 -127z m1842 92 c0 -25 4
-30 25 -30 16 0 25 -6 25 -15 0 -9 -9 -15 -25 -15 -20 0 -25 -5 -25 -25 0 -14
-4 -25 -10 -25 -5 0 -10 11 -10 24 0 19 -6 25 -27 28 -27 3 -35 22 -10 24 6 0
18 2 25 2 6 1 12 15 12 32 0 17 5 30 10 30 6 0 10 -13 10 -30z m-1397 -78 c9
-10 20 -33 23 -51 5 -26 16 -37 56 -57 57 -29 175 -54 254 -54 68 0 185 18
235 35 39 14 54 9 40 -13 -12 -19 -138 -52 -226 -59 -44 -3 -113 0 -154 6 -80
13 -220 68 -221 88 0 9 -6 9 -25 -1 -53 -28 -109 8 -103 65 2 24 10 37 28 46
36 18 74 16 93 -5z m-4745 -32 c31 0 42 -4 42 -15 0 -13 -24 -15 -155 -15
-131 0 -155 2 -155 15 0 12 17 15 96 15 94 0 95 0 88 23 l-6 22 24 -22 c17
-16 37 -23 66 -23z m3477 10 c3 -11 33 -34 66 -51 53 -28 59 -35 59 -63 0 -64
8 -75 59 -78 33 -2 46 -7 46 -18 0 -11 -13 -16 -49 -18 -42 -3 -60 -12 -126
-62 l-78 -59 -15 22 c-8 12 -40 35 -71 51 l-56 28 0 74 c0 62 3 76 22 94 l22
20 -77 0 c-61 0 -77 3 -77 15 0 12 22 15 118 17 110 3 118 4 127 26 12 27 22
28 30 2z m-1863 -36 c41 -7 56 -35 31 -59 -12 -12 -53 -15 -228 -15 -117 0
-220 3 -229 6 -19 7 -22 60 -3 67 17 8 385 8 429 1z m216 -71 c-2 -20 -9 -28
-23 -28 -14 0 -21 8 -23 28 -3 23 0 27 23 27 23 0 26 -4 23 -27z m-2140 -35
c17 -17 15 -28 -6 -28 -24 0 -32 8 -25 26 6 17 15 18 31 2z m6451 -7 c7 -13 7
-23 -2 -35 -11 -15 -40 -16 -276 -14 -234 3 -265 5 -274 20 -8 12 -7 21 2 32
12 14 49 16 277 16 247 0 264 -1 273 -19z m-6539 0 c0 -15 -15 -21 -38 -14
-32 8 -27 23 8 23 17 0 30 -4 30 -9z m1670 -373 c0 -445 1 -447 85 -488 76
-37 146 -14 190 61 19 32 20 55 23 422 2 331 5 387 17 387 13 0 15 -56 15
-395 0 -373 -1 -398 -20 -434 -23 -46 -67 -85 -115 -102 -19 -7 -36 -18 -39
-24 -2 -6 2 -70 10 -141 7 -71 17 -172 21 -224 l8 -95 55 -8 c98 -14 82 -27
-32 -27 -152 0 -148 -19 4 -22 119 -3 123 -4 135 -27 8 -17 9 -31 2 -43 -9
-17 -25 -18 -222 -16 l-212 3 2 35 c2 51 46 86 117 95 64 8 60 -6 76 225 5 80
13 170 16 201 l6 56 -34 7 c-52 10 -104 50 -127 100 -22 44 -22 56 -24 441
l-2 395 23 0 22 0 0 -382z m268 322 c2 -30 1 -70 -3 -87 l-6 -33 -114 0 -115
0 0 90 0 91 118 -3 117 -3 3 -55z m2921 31 c7 -13 7 -23 -2 -35 -11 -15 -44
-16 -311 -16 -297 0 -326 3 -326 34 0 34 22 36 327 36 285 0 303 -1 312 -19z
m-2711 -13 c3 -14 -3 -18 -27 -18 -29 0 -41 17 -24 34 13 13 48 1 51 -16z
m152 18 c0 -2 3 -11 6 -20 5 -12 -1 -16 -23 -16 -36 0 -46 9 -32 27 10 12 49
19 49 9z m-1746 -89 c3 -13 6 -272 6 -575 l0 -552 -80 0 c-43 0 -81 -3 -83 -8
-3 -4 7 -32 22 -62 l27 -55 58 0 c38 -1 60 -5 66 -15 5 -8 8 -15 7 -16 -1 -1
-39 -4 -85 -7 -81 -4 -84 -5 -175 -66 -51 -33 -99 -61 -105 -61 -7 0 -52 27
-100 59 -91 62 -111 69 -199 70 -38 1 -53 5 -53 15 0 14 55 30 71 20 22 -13
50 11 78 67 l29 59 -155 0 c-119 0 -154 3 -151 13 4 9 54 13 189 17 179 5 185
6 219 31 72 54 77 55 117 12 l36 -38 109 -2 108 -3 0 93 0 92 -37 0 c-28 0
-38 5 -41 18 -3 14 4 17 37 17 l41 0 1 208 c0 114 0 308 1 432 0 124 2 233 4
243 8 25 31 21 38 -6z m1664 -9 c-2 -21 -8 -33 -18 -33 -19 0 -25 32 -10 50
20 24 31 17 28 -17z m4277 12 c3 -5 7 -56 7 -112 1 -89 -1 -103 -15 -106 -15
-3 -17 10 -17 112 0 105 7 135 25 106z m-6825 -15 c0 -10 -10 -15 -30 -15
l-30 0 0 -134 0 -134 55 -47 c82 -70 71 -93 -15 -30 -26 19 -52 35 -56 35 -5
0 -35 -21 -67 -46 -54 -42 -58 -48 -52 -77 4 -19 21 -45 43 -64 70 -61 71 -61
153 -5 41 28 77 48 82 45 9 -6 -98 -109 -134 -128 -14 -7 -34 -32 -44 -54 -17
-40 -37 -52 -50 -31 -4 6 1 24 9 42 24 48 20 60 -34 97 l-50 34 -41 -27 c-31
-21 -44 -25 -53 -16 -8 9 -2 19 24 41 19 16 38 29 43 29 4 0 7 17 5 38 -3 33
-7 38 -43 50 -53 17 -74 37 -57 54 10 10 21 8 52 -10 21 -12 47 -22 57 -22 10
1 43 20 73 43 l55 43 3 132 3 132 -61 0 -60 0 0 -50 c0 -27 -4 -50 -9 -50 -11
0 -22 80 -15 108 7 23 28 27 167 30 62 2 77 -1 77 -13z m74 -16 c10 -52 7 -79
-9 -79 -12 0 -15 13 -15 55 0 60 14 74 24 24z m6322 -79 c2 -101 0 -110 -17
-110 -17 0 -18 9 -18 110 0 97 2 110 17 110 15 0 17 -14 18 -110z m64 0 c0
-91 -3 -110 -15 -110 -12 0 -15 19 -15 110 0 91 3 110 15 110 12 0 15 -19 15
-110z m-5762 82 c2 -6 -32 -48 -76 -92 l-79 -82 46 -42 c25 -23 68 -62 94 -86
57 -51 73 -78 59 -92 -7 -7 -52 26 -139 103 -71 63 -143 123 -159 135 -25 18
-27 23 -15 38 18 21 25 20 57 -7 l27 -23 80 83 c76 79 96 92 105 65z m4342
-72 l0 -90 -175 0 -175 0 0 90 0 90 175 0 175 0 0 -90z m60 0 c0 -53 -4 -90
-10 -90 -6 0 -10 37 -10 90 0 53 4 90 10 90 6 0 10 -37 10 -90z m-4740 27 c-1
-21 -248 -269 -260 -262 -20 12 -6 32 94 135 92 95 97 102 82 119 -20 22 -20
38 1 49 18 11 83 -22 83 -41z m6399 -42 c0 -52 -4 -95 -9 -95 -11 0 -16 66
-12 138 6 88 21 58 21 -43z m-805 25 c33 -12 35 -47 3 -59 -26 -10 -495 -14
-533 -5 -20 5 -24 12 -22 33 l3 26 260 5 c143 3 261 7 262 8 1 1 13 -2 27 -8z
m-3684 -280 c0 -216 -3 -266 -16 -300 -41 -103 -160 -106 -208 -6 -13 29 -16
75 -16 300 l0 266 120 0 120 0 0 -260z m3248 -132 l-3 -313 -22 -3 -23 -3 0
315 0 316 25 0 25 0 -2 -312z m403 125 c0 -98 1 -207 1 -243 1 -170 -2 -200
-16 -200 -18 0 -21 48 -24 368 -1 245 -1 252 18 252 19 0 20 -8 21 -177z
m-751 141 c11 -11 12 -19 4 -32 -10 -15 -39 -17 -305 -20 -162 -1 -304 0 -317
3 -18 4 -23 11 -20 33 2 21 10 28 33 32 17 3 156 4 310 2 224 -3 283 -7 295
-18z m410 -280 c0 -240 -3 -305 -12 -302 -10 4 -14 73 -16 294 -1 159 0 294 3
301 2 7 9 13 15 13 7 0 10 -102 10 -306z m-5006 182 l109 -103 -78 -82 c-73
-77 -77 -82 -61 -99 20 -23 21 -62 1 -62 -8 0 -79 58 -157 130 -79 71 -149
130 -155 130 -32 0 -5 -33 107 -133 75 -68 120 -115 120 -128 0 -39 -15 -29
-169 110 -122 110 -121 109 -121 134 0 39 33 61 82 54 42 -6 42 -6 116 74 41
43 79 79 85 79 7 -1 61 -47 121 -104z m5276 -191 c0 -256 -2 -295 -15 -295
-13 0 -15 39 -15 288 0 159 3 292 7 295 3 4 10 7 15 7 4 0 8 -133 8 -295z
m-1500 144 l37 -137 2 -413 c1 -379 0 -417 -16 -449 -25 -47 -81 -70 -118 -46
-55 36 -54 26 -55 492 -1 276 3 439 9 457 6 15 20 63 31 107 29 112 37 132 56
128 12 -2 27 -40 54 -139z m2560 116 c8 -10 8 -19 1 -33 -13 -24 -62 -28 -397
-31 -202 -1 -234 0 -248 14 -19 20 -20 37 -4 53 19 19 633 16 648 -3z m-2258
-507 l3 -453 25 -45 c83 -148 290 -140 373 15 21 39 22 51 25 488 3 416 4 448
20 445 16 -3 17 -38 20 -442 2 -376 0 -446 -13 -486 -38 -114 -129 -184 -241
-185 -116 0 -222 81 -254 193 -6 23 -10 209 -10 480 l0 442 25 0 24 0 3 -452z
m389 313 c0 -75 1 -271 2 -436 1 -285 0 -302 -20 -346 -39 -86 -158 -128 -241
-85 -36 19 -75 67 -91 115 -11 33 -17 872 -6 882 2 3 83 5 180 5 l175 0 1
-135z m1349 -132 l0 -230 -22 3 c-23 3 -23 4 -26 208 -3 229 -1 250 28 250 19
0 20 -7 20 -231z m253 222 c10 -1 17 -9 17 -22 0 -15 4 -19 16 -15 14 5 15 4
5 -8 -9 -11 -6 -17 14 -30 16 -11 22 -22 18 -33 -4 -11 -3 -14 5 -9 7 4 12 2
12 -5 0 -7 -10 -9 -25 -7 -21 4 -23 3 -14 -13 8 -15 6 -17 -8 -12 -13 4 -15 3
-8 -5 6 -6 22 -13 38 -16 l27 -5 0 75 c0 41 -4 74 -10 74 -5 0 -7 7 -4 15 11
29 35 17 34 -17 0 -18 0 -118 0 -223 -1 -104 -3 -191 -5 -194 -14 -13 -19 21
-18 128 l1 119 -29 4 c-34 5 -39 -11 -9 -30 23 -14 27 -42 5 -42 -8 0 -15 5
-15 10 0 6 -5 10 -11 10 -5 0 -7 -4 -4 -10 3 -5 1 -10 -4 -10 -6 0 -11 7 -11
16 0 8 -5 12 -10 9 -6 -4 -8 -11 -5 -16 4 -5 -15 -10 -42 -11 -26 -1 -64 -3
-83 -3 -19 -1 -40 -3 -47 -3 -8 -1 -13 -29 -15 -84 -2 -66 -6 -83 -18 -83 -13
0 -15 31 -18 205 -1 113 0 216 3 228 6 24 7 24 103 18 53 -3 105 -5 115 -5z
m71 0 c8 -13 -3 -19 -24 -14 -11 3 -17 9 -14 14 7 11 31 12 38 0z m121 -221
c0 -207 -1 -225 -18 -228 -16 -3 -17 12 -17 228 1 212 2 231 18 228 15 -3 17
-24 17 -228z m-5671 172 c-2 -29 8 -40 110 -125 158 -133 179 -147 214 -147
27 0 32 -4 32 -25 0 -18 16 -38 60 -74 101 -84 90 -88 149 50 28 66 49 124 46
129 -4 6 -15 10 -25 10 -10 0 -22 5 -26 11 -10 17 16 28 43 18 21 -8 25 -4 52
55 16 35 34 66 40 70 23 14 22 -25 0 -89 -20 -54 -22 -68 -11 -85 16 -26 16
-27 -10 -26 -18 1 -29 -16 -70 -114 -56 -133 -99 -220 -110 -220 -4 0 -14 10
-22 21 -8 12 -24 22 -36 23 -34 2 -23 21 15 24 19 2 35 7 35 12 0 5 -34 36
-76 70 -73 61 -76 62 -120 55 -36 -5 -50 -3 -65 11 -20 18 -26 44 -9 44 28 0
1 33 -87 105 -53 44 -105 86 -115 93 -17 13 -18 3 -18 -207 l0 -220 35 6 c27
4 35 2 35 -10 0 -8 -11 -18 -25 -21 -14 -4 -25 -10 -25 -14 1 -4 64 -58 140
-119 108 -88 146 -113 169 -113 33 0 43 -11 45 -45 1 -16 29 -46 89 -95 48
-40 87 -77 87 -81 0 -22 -34 -4 -106 57 -90 75 -108 84 -145 74 -28 -8 -36 -5
-58 22 -11 15 -11 21 0 34 11 14 10 19 -11 36 -14 11 -67 54 -119 96 -51 42
-97 79 -102 80 -5 2 -9 -74 -9 -177 l0 -180 38 -3 c25 -2 37 -8 37 -18 0 -10
-12 -16 -37 -18 -21 -2 -38 -7 -38 -13 0 -17 -39 -9 -49 10 -7 11 -26 20 -51
24 -48 6 -58 13 -43 28 7 7 22 7 48 0 21 -6 42 -8 47 -5 9 6 11 289 2 358 -6
42 -10 48 -35 53 -16 3 -34 12 -40 19 -24 29 17 67 51 46 16 -10 18 1 25 152
7 163 0 296 -16 296 -4 0 -13 -9 -19 -20 -13 -24 -38 -26 -47 -4 -4 11 10 31
48 65 62 56 85 59 83 11z m459 -12 c3 -11 11 -19 17 -18 7 2 15 -3 17 -9 3 -8
-4 -13 -16 -13 -16 0 -21 -6 -21 -26 0 -14 -4 -23 -10 -19 -5 3 -10 15 -10 26
0 12 -7 19 -20 19 -11 0 -20 7 -20 15 0 8 9 15 20 15 11 0 20 7 20 15 0 22 17
18 23 -5z m2260 -54 c21 -8 48 -22 59 -33 45 -40 50 -72 55 -373 2 -157 1
-308 -2 -336 -8 -68 -48 -129 -101 -155 -40 -19 -59 -20 -617 -17 l-575 3 -38
30 c-71 58 -74 72 -74 326 l0 227 -26 6 c-33 9 -31 49 4 54 20 3 22 9 22 70 0
104 39 170 117 198 56 19 1120 19 1176 0z m-3658 -62 c0 -7 -108 -123 -240
-258 -247 -254 -287 -308 -249 -329 9 -5 34 -25 56 -45 l38 -35 57 54 c159
149 440 445 436 456 -3 8 -8 13 -12 11 -3 -2 -112 -112 -241 -244 -129 -133
-240 -242 -247 -243 -7 0 -28 13 -48 30 -30 27 -33 33 -23 52 6 12 77 89 158
172 80 82 189 195 241 251 l94 100 68 -59 c37 -33 67 -66 65 -73 -2 -7 -124
-135 -271 -284 l-268 -270 -111 -50 c-61 -28 -112 -49 -114 -47 -2 2 14 48 35
103 21 54 42 124 46 154 8 61 -15 34 340 398 83 84 152 158 154 163 4 13 36 7
36 -7z m421 -301 c17 -17 16 -18 -12 -24 -36 -7 -37 -6 -29 20 8 26 18 26 41
4z m6378 -9 c12 -12 13 -20 6 -35 -10 -18 -23 -19 -183 -20 -1026 -3 -1399 -4
-1494 -1 -102 3 -113 5 -118 23 -16 51 -48 49 896 49 784 0 879 -2 893 -16z
m-6376 -46 c-7 -19 -35 -21 -41 -3 -5 11 0 15 19 15 16 0 24 -5 22 -12z m1126
-54 c17 -17 20 -27 9 -37 -7 -8 -53 31 -53 45 0 14 28 9 44 -8z m3726 -122 c0
-70 5 -144 10 -164 30 -105 154 -166 253 -124 49 20 104 83 116 132 6 23 11
97 11 163 0 67 2 121 4 121 2 0 11 3 20 6 14 5 16 -11 16 -147 0 -169 -11
-213 -68 -272 -73 -77 -196 -96 -284 -44 -102 60 -127 121 -128 314 0 127 2
142 18 146 9 2 20 2 25 0 4 -2 7 -61 7 -131z m253 129 l97 -1 0 -140 c0 -153
-7 -181 -56 -219 -35 -27 -98 -44 -135 -36 -41 9 -89 52 -110 100 -15 32 -19
65 -19 166 0 69 2 128 4 130 2 2 31 3 63 2 32 -1 102 -2 156 -2z m637 -106 c0
-150 13 -207 58 -257 47 -52 86 -71 147 -71 88 -1 168 57 193 139 7 23 12 97
12 168 0 122 1 126 21 126 21 0 22 -2 17 -159 -4 -149 -6 -161 -31 -204 -97
-166 -326 -171 -423 -9 -17 28 -34 69 -38 89 -7 43 -8 277 -1 284 2 3 13 5 25
6 19 2 20 -3 20 -112z m70 -14 c0 -71 5 -142 11 -158 15 -40 57 -81 95 -93 28
-10 40 -8 81 12 72 36 84 68 86 228 1 102 5 130 15 130 11 0 13 -29 10 -147
-3 -137 -5 -150 -27 -181 -31 -44 -103 -75 -155 -69 -45 6 -77 28 -120 81 -30
36 -30 40 -34 166 -5 138 -1 160 23 160 13 0 15 -20 15 -129z"/>
<path d="M4370 7405 c-10 -17 -27 -51 -38 -76 l-20 -46 62 -30 61 -30 72 33
73 33 -33 72 -33 73 -63 0 c-59 1 -63 -1 -81 -29z"/>
<path d="M4673 7279 l-42 -19 16 -38 c8 -20 22 -58 29 -83 13 -43 38 -78 49
-67 6 5 35 156 35 180 0 17 -26 49 -38 47 -4 0 -26 -9 -49 -20z"/>
<path d="M4131 7272 c-10 -19 14 -159 30 -177 15 -15 44 24 68 88 27 73 27 74
-9 92 -39 20 -77 19 -89 -3z"/>
<path d="M4276 7193 c-9 -25 -15 -48 -13 -49 4 -5 117 50 117 57 0 6 -72 39
-84 39 -2 0 -11 -21 -20 -47z"/>
<path d="M4533 7222 c-50 -19 -54 -28 -14 -37 16 -3 50 -19 75 -35 25 -16 46
-28 46 -26 0 19 -45 116 -54 115 -6 0 -30 -8 -53 -17z"/>
<path d="M4388 7152 c-40 -24 -35 -31 18 -21 33 6 55 5 79 -5 58 -25 52 -36
-18 -29 -103 9 -168 -35 -198 -134 -16 -56 -2 -104 46 -161 43 -50 93 -66 170
-57 50 7 55 10 88 59 68 98 71 146 11 236 -19 28 -34 57 -34 64 0 13 -98 66
-121 66 -8 0 -26 -8 -41 -18z"/>
<path d="M4278 7099 c-31 -16 -39 -28 -59 -86 -12 -38 -24 -74 -27 -82 -4 -9
-1 -12 7 -7 6 4 24 35 40 69 15 34 41 74 56 90 36 35 30 40 -17 16z"/>
<path d="M4597 7078 c38 -40 72 -112 73 -153 0 -29 -18 -70 -63 -145 l-21 -34
34 20 c29 16 39 31 57 89 l23 68 -20 66 c-25 83 -27 85 -75 105 l-40 17 32
-33z"/>
<path d="M4171 7046 c-8 -10 -9 -16 -1 -21 5 -3 13 1 16 10 9 22 -1 29 -15 11z"/>
<path d="M4700 7023 c0 -22 2 -25 10 -13 13 20 13 40 0 40 -5 0 -10 -12 -10
-27z"/>
<path d="M4087 6989 c-49 -41 -48 -67 6 -118 23 -22 45 -41 49 -41 23 0 13
152 -12 182 -3 4 -22 -6 -43 -23z"/>
<path d="M4751 7002 c-6 -12 -11 -46 -11 -77 0 -31 -5 -65 -11 -77 -16 -30 -8
-30 44 3 44 27 47 32 47 72 0 35 -6 49 -29 71 -29 27 -29 28 -40 8z"/>
<path d="M3960 6956 c0 -8 8 -20 18 -25 16 -10 16 -12 -2 -26 -28 -21 -10 -32
22 -14 20 11 27 23 27 44 0 26 -4 30 -32 33 -24 2 -33 -1 -33 -12z"/>
<path d="M4216 6888 c-3 -10 -8 -25 -11 -34 -7 -21 30 -71 67 -90 32 -17 32
-13 -4 37 -11 14 -25 43 -33 65 -10 29 -15 35 -19 22z"/>
<path d="M4151 6712 c-36 -114 -27 -141 42 -128 60 12 60 15 25 109 -18 48
-36 87 -39 87 -3 0 -16 -31 -28 -68z"/>
<path d="M4679 6723 c-12 -26 -27 -65 -34 -85 -14 -36 -13 -37 17 -47 46 -16
88 -14 95 6 9 22 -29 166 -44 171 -8 2 -22 -17 -34 -45z"/>
<path d="M4263 6683 c11 -32 22 -60 23 -62 2 -2 28 7 58 20 l56 23 -68 29
c-37 16 -72 34 -78 39 -7 5 -3 -17 9 -49z"/>
<path d="M4566 6696 l-69 -32 35 -22 c19 -12 42 -22 49 -22 8 0 24 25 36 55
11 30 20 55 20 54 -1 0 -33 -15 -71 -33z"/>
<path d="M4422 6699 c18 -7 33 -7 45 0 14 8 9 10 -27 10 -42 -1 -43 -1 -18
-10z"/>
<path d="M4430 6633 c-8 -3 -39 -16 -68 -29 l-53 -23 36 -71 c34 -68 47 -81
60 -60 8 13 61 13 85 0 17 -9 24 -2 55 60 l35 70 -25 10 c-13 5 -44 19 -67 30
-23 11 -42 20 -42 19 -1 0 -8 -3 -16 -6z"/>
<path d="M4442 6370 c2 -18 9 -35 16 -38 18 -6 15 43 -4 59 -14 11 -15 9 -12
-21z"/>
<path d="M1370 7263 c-14 -2 -56 -20 -95 -38 -290 -139 -369 -522 -157 -757
52 -57 146 -118 216 -140 209 -65 455 35 560 226 47 84 59 149 54 267 -4 88
-9 107 -41 172 -49 99 -135 185 -234 234 -71 35 -82 38 -177 39 -56 1 -112 0
-126 -3z m277 -77 c86 -41 177 -126 211 -197 12 -25 29 -79 37 -120 11 -62 12
-86 1 -149 -17 -95 -33 -132 -85 -198 -50 -63 -122 -112 -214 -147 -138 -51
-283 -17 -411 97 -152 135 -181 379 -66 556 63 98 173 172 293 196 79 16 141
6 234 -38z"/>
<path d="M1426 7176 c-20 -23 -36 -46 -36 -50 0 -3 36 -6 80 -6 67 0 80 3 80
16 0 17 -64 84 -80 84 -5 0 -25 -20 -44 -44z"/>
<path d="M1333 7166 c-33 -23 -34 -36 -4 -36 9 0 24 14 33 30 20 36 14 37 -29
6z"/>
<path d="M1580 7172 c0 -15 36 -42 56 -42 16 1 14 5 -11 25 -31 26 -45 31 -45
17z"/>
<path d="M1201 7064 c-38 -31 -87 -133 -96 -196 l-6 -48 84 0 84 0 7 58 c6 49
24 132 42 195 5 14 -1 17 -40 17 -33 0 -52 -6 -75 -26z"/>
<path d="M1635 7073 c15 -37 34 -110 40 -153 15 -109 7 -100 95 -100 43 0 81
4 84 9 7 11 -21 105 -45 153 -10 20 -35 53 -55 72 -31 30 -44 36 -82 36 -38 0
-43 -2 -37 -17z"/>
<path d="M1356 7041 c-16 -42 -36 -146 -36 -194 l0 -28 155 2 c85 0 157 4 159
7 6 11 -11 120 -30 189 l-17 63 -107 0 -108 0 -16 -39z"/>
<path d="M1708 6772 c-24 -3 -28 -8 -28 -37 0 -46 -27 -173 -45 -207 l-13 -28
58 0 c53 0 60 3 86 33 36 42 72 121 83 183 5 27 8 50 7 52 -5 4 -120 8 -148 4z"/>
<path d="M1103 6716 c6 -57 40 -134 82 -185 24 -28 32 -31 81 -31 30 0 54 1
54 3 0 1 -11 47 -25 101 -14 54 -25 114 -25 132 l0 34 -86 0 -87 0 6 -54z"/>
<path d="M1323 6706 c3 -35 16 -94 29 -132 l23 -69 94 -3 c56 -2 98 1 106 8
15 12 42 116 54 203 l8 57 -160 0 -160 0 6 -64z"/>
<path d="M1292 6450 c5 -16 88 -65 88 -52 0 5 -8 19 -17 30 -21 25 -78 42 -71
22z"/>
<path d="M1400 6449 c0 -6 16 -27 35 -46 33 -33 37 -34 58 -20 12 8 30 28 40
46 l19 31 -76 0 c-49 0 -76 -4 -76 -11z"/>
<path d="M1583 6424 c-34 -32 -35 -35 -13 -29 39 11 91 46 84 56 -10 18 -34 9
-71 -27z"/>
<path d="M3780 7498 c-14 -7 -32 -27 -40 -45 -12 -25 -23 -33 -52 -38 -21 -4
-42 -4 -48 0 -22 13 -8 -10 37 -62 25 -30 52 -57 59 -60 7 -3 37 15 65 39 83
69 99 86 99 106 0 50 -71 85 -120 60z"/>
<path d="M3680 7185 c-30 -30 -52 -56 -50 -58 43 -35 81 -57 96 -57 11 0 37
18 58 39 l39 39 -44 46 -44 45 -55 -54z"/>
<path d="M7394 7466 c-17 -7 -34 -21 -38 -31 -3 -9 -6 -403 -6 -876 l0 -859
204 0 204 0 3 28 c8 54 0 72 -32 72 -41 0 -39 28 4 32 24 2 33 8 35 24 3 18
-4 22 -35 27 -21 4 -64 7 -95 7 -31 0 -59 4 -62 9 -8 13 21 34 35 25 15 -9
141 -5 152 5 4 4 5 15 1 24 -5 13 -19 17 -56 17 -65 0 -61 24 5 28 42 3 47 6
47 28 0 22 -4 24 -46 24 -58 0 -56 24 3 28 34 3 42 7 46 28 l4 24 -98 0 c-92
0 -99 1 -99 20 0 19 7 20 95 20 95 0 95 0 95 25 0 23 -4 25 -40 25 -22 0 -40
4 -40 10 0 14 35 30 64 30 19 0 26 5 26 20 0 17 -7 20 -45 20 -33 0 -45 4 -45
15 0 11 11 15 39 15 28 0 40 5 43 18 10 37 -1 42 -93 42 -72 0 -89 3 -89 15 0
12 17 15 90 15 89 0 90 0 90 25 0 22 -4 25 -36 25 -45 0 -42 24 4 28 26 3 32
8 32 28 0 20 -5 24 -28 24 -16 0 -32 3 -35 7 -13 12 15 33 44 33 22 0 29 5 29
20 0 17 -7 20 -45 20 -33 0 -45 4 -45 15 0 11 12 15 45 15 41 0 45 2 45 25 0
24 -3 25 -57 27 -32 1 -80 2 -106 2 -38 0 -47 3 -45 15 3 13 22 17 105 19 94
2 102 4 100 22 -1 17 -9 20 -49 20 -48 0 -71 15 -47 31 8 5 33 9 57 9 39 0 43
2 40 23 -3 19 -10 22 -50 25 -70 4 -58 32 13 32 24 0 29 4 29 24 0 22 -5 24
-72 30 -40 3 -82 5 -93 3 -12 -1 -20 4 -20 13 0 16 4 16 133 19 59 1 62 2 62
26 0 24 -3 25 -55 25 -42 0 -55 3 -55 15 0 12 13 15 55 15 52 0 55 1 55 25 0
24 -3 25 -55 25 -41 0 -55 4 -55 14 0 11 15 16 53 18 45 3 52 6 53 24 1 20 -5
22 -97 29 -76 5 -99 10 -99 21 0 11 20 14 101 14 98 0 100 0 97 23 -3 19 -10
22 -56 25 -70 4 -65 26 7 30 47 3 52 5 49 25 -3 19 -10 22 -55 25 -38 2 -53 7
-53 18 0 10 14 14 54 14 49 0 54 2 49 20 -10 36 -42 44 -193 47 -109 3 -153 0
-176 -11z"/>
<path d="M7463 5603 c17 -4 18 -18 15 -198 -3 -183 -4 -195 -25 -222 -13 -15
-48 -66 -79 -113 -31 -47 -65 -98 -76 -113 -11 -16 -18 -30 -16 -32 11 -11
528 -8 528 3 0 5 -43 73 -95 152 -79 119 -95 150 -95 182 l0 38 -60 0 -60 0 0
155 0 155 -27 -1 c-19 -1 -22 -3 -10 -6z"/>
<path d="M2955 7311 c-7 -28 -5 -511 3 -648 l5 -83 143 0 144 0 0 378 0 378
-144 0 -145 0 -6 -25z m265 -350 l0 -350 -42 -6 c-24 -3 -77 -5 -118 -3 l-75
3 -3 340 c-1 187 0 346 3 352 3 10 36 13 120 13 l115 0 0 -349z"/>
<path d="M6900 7310 c0 -5 5 -10 10 -10 6 0 10 5 10 10 0 6 -4 10 -10 10 -5 0
-10 -4 -10 -10z"/>
<path d="M5216 7185 c-21 -22 -20 -48 2 -68 25 -22 45 -21 67 3 41 46 -26 108
-69 65z"/>
<path d="M5253 6789 c-48 -18 -33 -99 18 -99 22 0 52 42 47 66 -5 26 -39 44
-65 33z"/>
<path d="M6791 6585 c-7 -16 -31 -73 -55 -125 l-44 -95 61 -5 c34 -3 83 -3
109 -2 l46 4 -15 36 c-8 21 -23 56 -34 78 -10 23 -27 63 -38 90 l-19 49 -11
-30z"/>
<path d="M6652 6273 c-11 -27 -46 -101 -76 -165 l-55 -118 274 0 c257 0 274 1
268 18 -3 9 -35 83 -71 165 l-64 147 -44 0 c-24 0 -44 -2 -44 -4 0 -2 7 -20
16 -41 8 -21 13 -47 10 -59 -3 -12 -36 -41 -73 -66 -85 -57 -92 -80 -33 -110
46 -24 44 -45 -3 -36 -52 11 -77 33 -77 69 0 45 20 69 90 112 33 20 60 41 60
46 0 5 -7 27 -16 49 l-16 40 -63 0 -63 0 -20 -47z m322 -148 c4 -12 -6 -15
-64 -15 -64 0 -89 8 -73 24 3 3 34 6 69 6 46 0 63 -4 68 -15z"/>
<path d="M3050 6435 c0 -42 3 -55 15 -55 12 0 15 13 15 55 0 42 -3 55 -15 55
-12 0 -15 -13 -15 -55z"/>
<path d="M3120 6435 c0 -42 3 -55 15 -55 12 0 15 13 15 55 0 42 -3 55 -15 55
-12 0 -15 -13 -15 -55z"/>
<path d="M3514 6416 c-50 -22 -86 -77 -87 -134 -1 -47 -2 -48 -49 -71 -90 -43
-114 -135 -61 -232 28 -52 67 -88 173 -159 36 -24 82 -57 102 -73 23 -18 41
-26 50 -21 71 42 245 174 276 209 91 104 67 256 -44 274 l-39 6 -5 63 c-4 48
-10 67 -24 78 -25 18 -31 18 -49 0 -13 -13 -18 -11 -43 15 -16 17 -41 37 -56
45 -34 18 -103 17 -144 0z m181 -150 c40 -17 55 -42 55 -91 0 -28 -9 -45 -40
-79 -22 -24 -40 -51 -40 -60 0 -9 -8 -16 -20 -16 -35 0 -25 46 20 92 23 25 40
52 40 65 0 27 -41 73 -65 73 -20 0 -65 -44 -65 -65 0 -8 -9 -15 -20 -15 -31 0
-26 46 9 81 33 33 71 37 126 15z m-20 -296 c0 -20 -5 -25 -25 -25 -28 0 -41
32 -18 46 23 15 43 5 43 -21z"/>
<path d="M2644 6130 c0 -140 2 -198 3 -127 2 70 2 184 0 255 -1 70 -3 12 -3
-128z"/>
<path d="M2392 6128 c3 -228 4 -243 22 -246 16 -4 18 0 12 32 l-7 36 51 0 c27
0 50 5 50 10 0 6 -12 10 -27 10 -67 0 -90 20 -55 46 16 13 16 13 -3 14 -17 0
-17 2 -5 10 10 6 11 10 3 10 -7 0 -13 7 -13 15 0 11 12 15 45 15 25 0 45 5 45
10 0 6 -13 10 -29 10 -16 0 -36 3 -45 6 -20 8 -21 44 -1 44 22 0 18 21 -4 27
-33 8 -12 32 32 35 23 2 42 9 45 17 3 9 -1 11 -16 7 -25 -8 -72 2 -72 16 0 5
9 12 20 15 11 3 20 9 20 14 0 5 -9 9 -20 9 -15 0 -20 7 -20 25 0 23 4 25 45
25 33 0 45 4 45 15 0 12 -13 15 -60 15 l-60 0 2 -242z"/>
<path d="M2495 5720 c-3 -5 1 -10 9 -10 9 0 16 5 16 10 0 6 -4 10 -9 10 -6 0
-13 -4 -16 -10z"/>
<path d="M6010 5794 c-124 -54 -163 -196 -83 -302 106 -140 325 -85 358 89 27
143 -140 272 -275 213z m113 -58 c18 -7 46 -28 61 -47 24 -29 28 -39 24 -81
-12 -116 -147 -164 -220 -78 -54 65 -41 148 32 198 38 26 58 27 103 8z"/>
<path d="M6032 5685 c-26 -22 -32 -34 -32 -67 0 -51 12 -72 50 -88 83 -34 158
76 98 144 -35 40 -78 43 -116 11z"/>
<path d="M1391 5613 c-23 -27 -41 -51 -41 -54 0 -3 24 -14 54 -24 52 -18 54
-18 100 1 25 10 46 21 46 24 0 14 -89 100 -103 100 -8 0 -34 -21 -56 -47z"/>
<path d="M880 5640 c-40 -10 -60 -33 -60 -72 0 -41 21 -76 79 -133 l51 -49 65
32 66 32 -3 87 c-3 83 -4 87 -28 93 -48 13 -135 18 -170 10z"/>
<path d="M1883 5628 l-73 -20 0 -67 1 -66 64 -37 c35 -21 68 -38 74 -38 17 0
124 115 138 148 16 38 8 79 -17 92 -29 15 -108 10 -187 -12z"/>
<path d="M1113 5529 c6 -86 26 -189 36 -189 3 0 19 23 34 50 16 28 44 73 62
102 19 29 31 55 27 59 -4 3 -34 15 -67 27 -33 11 -69 23 -79 28 -18 7 -19 3
-13 -77z"/>
<path d="M1733 5577 c-42 -13 -41 -19 1 -39 34 -17 34 -17 39 10 7 35 -1 41
-40 29z"/>
<path d="M1620 5531 c0 -5 6 -14 14 -20 8 -7 32 -42 54 -79 22 -37 49 -75 60
-85 19 -17 19 -16 25 50 6 77 2 84 -80 123 -45 21 -73 26 -73 11z"/>
<path d="M1272 5467 c-23 -34 -42 -65 -42 -69 0 -8 170 85 170 93 0 5 -72 39
-83 39 -1 0 -21 -28 -45 -63z"/>
<path d="M1536 5504 l-29 -16 72 -39 c40 -21 75 -39 78 -39 8 0 -26 51 -55 83
-30 31 -28 31 -66 11z"/>
<path d="M1355 5417 c-147 -79 -204 -124 -190 -147 8 -13 120 -70 187 -95 50
-19 55 -18 201 40 32 13 19 -24 -15 -41 l-32 -16 103 -36 c85 -28 105 -32 112
-21 13 22 41 151 33 158 -4 3 -9 0 -11 -7 -7 -19 -23 -4 -23 23 0 19 4 22 23
18 20 -4 19 -2 -7 19 -52 42 -250 148 -276 148 -14 0 -61 -20 -105 -43z m325
-191 c0 -36 -32 -86 -56 -86 -16 0 -34 39 -34 75 0 13 11 32 26 44 36 28 64
13 64 -33z"/>
<path d="M1808 5377 c-3 -40 -3 -74 -1 -76 3 -4 113 68 113 74 0 1 -24 18 -54
38 l-54 36 -4 -72z"/>
<path d="M1050 5403 c-19 -13 -42 -28 -50 -33 -13 -8 -12 -11 5 -25 35 -28 94
-55 99 -46 5 7 -10 120 -16 126 -2 2 -19 -8 -38 -22z"/>
<path d="M960 5192 c-173 -95 -179 -101 -140 -137 14 -13 42 -19 95 -23 l74
-5 18 33 c10 18 33 56 52 84 37 56 47 106 22 106 -9 -1 -63 -27 -121 -58z"/>
<path d="M1130 5217 c0 -8 7 -18 16 -21 11 -4 14 -1 12 11 -4 21 -28 30 -28
10z"/>
<path d="M1180 5205 c0 -25 71 -179 109 -237 132 -200 237 -221 339 -68 45 67
54 94 21 64 -26 -23 -50 -10 -64 34 -5 18 -14 32 -21 32 -6 0 -60 23 -120 51
-107 50 -123 53 -179 33 -19 -6 -19 -5 2 17 l23 23 -48 28 c-46 27 -62 33 -62
23z"/>
<path d="M1484 5100 c43 -21 83 -43 89 -49 6 -6 15 -7 21 -2 19 16 76 -15 77
-41 0 -20 2 -19 16 9 9 18 14 36 10 39 -7 7 -267 84 -282 83 -5 0 25 -18 69
-39z"/>
<path d="M6796 5668 c-9 -27 -36 -161 -34 -163 2 -2 22 -6 46 -10 50 -8 51 -4
26 105 -15 68 -30 94 -38 68z"/>
<path d="M6740 5425 c0 -20 5 -25 24 -25 17 0 25 7 28 25 5 22 2 25 -23 25
-24 0 -29 -4 -29 -25z"/>
<path d="M6813 5425 c0 -22 4 -25 32 -25 29 0 32 2 27 25 -3 19 -10 25 -32 25
-23 0 -27 -4 -27 -25z"/>
<path d="M3266 5425 c-16 -14 -32 -25 -35 -25 -3 -1 -26 -19 -51 -42 -40 -36
-36 -34 40 17 101 69 109 75 90 75 -8 0 -28 -11 -44 -25z"/>
<path d="M3299 5407 c-15 -12 -62 -51 -105 -87 -90 -75 -243 -250 -319 -365
-240 -364 -323 -801 -235 -1228 40 -199 134 -417 252 -590 85 -123 260 -304
388 -398 220 -165 516 -280 808 -315 l52 -6 1 38 c0 22 1 61 2 89 l2 49 60 1
c33 0 66 -3 73 -8 6 -5 12 -6 12 -1 0 5 19 8 42 8 47 -1 44 7 47 -117 l1 -58
48 6 c126 17 227 39 325 71 468 150 891 562 1057 1029 35 100 72 253 62 259
-4 2 -50 1 -103 -1 l-97 -6 -17 -69 c-20 -83 -79 -229 -132 -324 -83 -152
-252 -347 -398 -461 -176 -138 -409 -241 -630 -279 -134 -23 -358 -23 -490 0
-652 114 -1141 653 -1195 1317 -38 464 173 965 524 1243 47 37 86 73 86 80 0
13 -82 146 -90 146 -3 0 -17 -11 -31 -23z"/>
<path d="M4570 5347 c0 -3 30 -17 66 -31 186 -75 342 -206 360 -304 6 -30 3
-37 -26 -60 -32 -25 -32 -25 -26 -93 7 -62 6 -68 -14 -74 -20 -7 -101 32 -116
56 -3 6 -14 -12 -24 -40 -9 -29 -27 -62 -39 -74 l-21 -23 31 -50 c18 -27 42
-62 56 -78 31 -37 25 -52 -20 -48 -33 3 -39 0 -55 -29 -31 -58 -56 -78 -113
-85 -46 -6 -59 -14 -103 -58 -28 -28 -71 -77 -96 -109 -25 -31 -71 -78 -103
-104 -33 -27 -60 -57 -64 -72 -14 -62 -31 -39 -32 44 0 49 1 51 51 85 34 23
63 54 84 90 40 68 90 113 146 129 24 7 52 19 63 26 11 7 40 16 64 20 l43 7
-29 32 c-45 49 -55 64 -48 75 4 7 18 6 42 -4 29 -12 38 -13 45 -3 9 13 38 74
38 81 0 2 -22 2 -48 1 -44 -2 -156 27 -175 45 -5 5 -10 24 -11 43 -3 26 -17
48 -56 89 l-53 54 8 -35 c5 -19 8 -54 7 -77 0 -24 7 -62 18 -85 13 -30 16 -47
9 -60 -11 -21 -59 -24 -77 -6 -9 9 -12 5 -12 -21 0 -26 -3 -32 -16 -27 -9 3
-17 6 -20 6 -11 0 -44 84 -44 113 0 37 -17 57 -67 76 -42 17 -63 42 -68 82 -5
32 0 38 62 89 37 30 86 64 108 76 36 18 40 24 43 62 4 47 1 50 -23 25 -14 -14
-18 -14 -26 -2 -4 8 -14 14 -21 14 -7 0 -12 8 -12 16 1 12 -5 15 -20 12 -49
-11 -51 -14 -18 -28 17 -8 32 -20 32 -28 0 -23 -12 -28 -27 -9 -13 16 -14 16
-10 -4 4 -21 -2 -24 -50 -25 -12 -1 -21 -6 -20 -11 1 -6 -7 -12 -18 -14 -11
-1 -34 -5 -51 -9 -28 -5 -36 0 -73 41 -23 26 -41 53 -41 60 0 20 -33 34 -101
41 -60 6 -61 5 -54 -15 9 -29 -3 -28 -26 2 -11 14 -32 26 -47 28 -19 2 -26 8
-24 20 4 27 -45 58 -93 58 -33 0 -50 -7 -82 -35 -23 -19 -46 -35 -52 -35 -6 0
-16 -9 -23 -20 -7 -11 -22 -20 -34 -20 -24 0 -47 -41 -37 -65 3 -10 -5 -28
-22 -45 l-28 -30 69 30 c80 34 151 40 161 13 4 -9 -2 -55 -13 -103 -10 -47
-19 -119 -20 -160 -1 -66 -6 -86 -44 -163 -49 -104 -60 -173 -36 -231 9 -21
16 -60 16 -85 0 -26 5 -73 11 -105 10 -57 46 -153 54 -145 2 2 -3 36 -11 74
-16 75 -16 177 0 140 5 -11 31 -67 57 -125 26 -58 51 -125 55 -150 4 -25 13
-53 21 -62 27 -30 148 -98 176 -98 18 0 43 -14 70 -38 23 -21 59 -51 79 -66
26 -19 39 -39 44 -61 5 -28 14 -38 50 -54 46 -22 104 -28 104 -11 0 5 -18 19
-40 30 -43 22 -60 45 -60 84 0 41 -10 55 -47 62 -19 4 -37 12 -39 19 -3 7 4
39 15 71 30 85 29 98 -11 90 -18 -4 -34 -11 -36 -16 -10 -30 -46 -60 -71 -60
-77 0 -102 148 -41 248 23 37 33 38 107 15 56 -17 63 -15 76 21 5 16 75 -4
106 -30 16 -13 38 -46 48 -72 11 -30 39 -68 80 -108 59 -58 76 -84 53 -84 -5
0 -27 15 -47 33 -74 65 -110 79 -157 61 -33 -13 -11 -104 25 -104 5 0 33 -22
62 -48 58 -53 79 -63 187 -87 112 -25 195 -68 227 -116 22 -33 45 -49 122 -85
53 -25 106 -54 118 -66 13 -12 33 -53 45 -91 13 -38 27 -71 33 -72 93 -25 145
-61 145 -103 0 -26 -62 -120 -68 -103 -2 6 4 34 14 63 17 51 16 52 -5 69 -11
9 -44 23 -72 30 -35 9 -54 20 -59 34 -5 11 -16 41 -25 67 -16 47 -53 103 -62
94 -3 -2 0 -13 5 -23 8 -15 5 -26 -14 -51 -30 -38 -197 -150 -286 -192 -65
-31 -60 -40 9 -16 50 18 215 127 272 180 43 40 48 33 8 -11 -24 -27 -12 -31
15 -6 11 9 18 11 18 5 0 -7 -4 -12 -9 -12 -5 0 -26 -17 -47 -38 -59 -57 -106
-90 -139 -98 -16 -4 -46 -15 -65 -24 -19 -10 -66 -26 -105 -35 -38 -10 -74
-22 -80 -27 -7 -7 -3 -8 11 -4 94 29 155 42 159 36 2 -4 -35 -20 -83 -35 -83
-26 -138 -53 -82 -41 120 27 170 41 214 60 21 9 41 16 45 16 15 -2 -97 -53
-143 -66 -237 -68 -226 -64 -166 -59 52 5 131 23 174 41 13 5 17 4 12 -4 -6
-10 -115 -47 -167 -57 -10 -2 -27 -8 -38 -14 -14 -8 -20 -8 -23 1 -3 8 -7 6
-10 -4 -7 -18 5 -18 77 1 22 6 51 10 65 10 l25 0 -25 -14 c-14 -8 -34 -15 -45
-15 -11 -1 -33 -7 -50 -16 l-30 -14 43 4 c23 2 42 0 42 -5 0 -5 -8 -10 -17
-10 -46 -3 -72 -9 -104 -22 l-34 -15 67 3 c37 2 73 6 80 10 7 3 4 -1 -6 -9
-11 -9 -35 -16 -54 -16 -26 0 -33 -4 -29 -14 3 -8 1 -17 -6 -20 -7 -3 -3 -4 7
-3 10 1 21 -4 23 -11 3 -7 -1 -10 -11 -6 -9 3 -16 1 -16 -6 0 -6 5 -8 10 -5 6
3 10 0 10 -7 0 -8 5 -6 11 5 8 13 7 22 -1 33 -10 11 -8 14 11 15 13 0 42 2 64
4 l40 4 -47 -16 c-47 -16 -63 -33 -32 -33 8 0 12 -5 9 -10 -4 -6 -10 -8 -15
-5 -5 3 -11 1 -15 -5 -6 -10 65 -8 163 5 35 5 52 4 52 -4 0 -6 9 -11 20 -11
11 0 20 6 20 14 0 20 40 32 51 15 7 -12 9 -12 9 -1 0 8 10 22 22 32 21 17 23
17 41 -4 10 -11 15 -15 11 -7 -5 11 -3 13 9 8 11 -4 21 1 28 15 9 16 13 18 20
7 7 -12 11 -11 25 3 16 16 16 17 -7 14 -13 -1 -34 -8 -47 -15 -13 -7 -28 -10
-35 -7 -9 3 -9 5 1 5 6 1 12 8 12 17 0 8 5 12 11 9 5 -4 18 -1 27 7 20 15 59
38 67 38 3 0 5 -4 5 -10 0 -5 -7 -10 -16 -10 -14 0 -14 -2 0 -15 19 -20 27
-19 19 2 -4 10 -2 14 4 10 6 -4 13 -2 15 4 2 6 15 12 30 12 14 1 24 5 21 10
-2 4 0 7 5 7 17 0 205 140 260 193 199 193 333 433 386 689 18 88 31 324 16
293 -9 -16 -9 -15 -5 10 10 57 4 230 -10 280 -13 50 -13 50 -14 -70 -1 -71 -8
-145 -17 -180 -9 -34 -17 -124 -20 -210 -3 -82 -8 -166 -11 -185 l-6 -35 -7
30 c-4 17 -8 92 -9 168 -1 107 4 158 20 230 18 77 20 111 15 206 -3 63 -12
126 -19 140 -7 14 -29 34 -50 44 -43 20 -57 48 -57 115 1 44 2 46 16 27 8 -11
19 -36 24 -56 10 -36 35 -67 46 -57 8 9 -43 136 -88 217 -23 41 -65 101 -94
132 -29 31 -57 66 -63 78 -15 27 -58 49 -112 57 -82 11 -107 24 -154 80 -56
65 -148 132 -245 180 -63 30 -150 55 -150 41z m639 -361 c12 -13 24 -39 26
-57 1 -19 6 -42 10 -53 7 -17 4 -18 -36 -11 -56 9 -56 9 -64 45 -4 17 -20 40
-36 52 -45 34 -38 48 24 48 44 0 58 -4 76 -24z m105 -137 c23 -27 34 -59 21
-59 -7 0 -74 74 -75 83 0 18 30 4 54 -24z m-1515 -748 c0 -24 -2 -23 -14 9
-18 46 -18 59 0 36 8 -11 15 -31 14 -45z m1768 -118 c-2 -16 -4 -3 -4 27 0 30
2 43 4 28 2 -16 2 -40 0 -55z m-717 -666 c0 -2 -10 -12 -22 -23 l-23 -19 19
23 c18 21 26 27 26 19z m-50 -40 c0 -2 -15 -16 -32 -33 l-33 -29 29 33 c28 30
36 37 36 29z m350 -148 c-47 -45 -94 -86 -105 -91 -11 -6 7 13 40 43 33 30 78
71 100 91 22 21 42 37 45 37 3 0 -33 -36 -80 -80z m-444 56 c-26 -20 -127 -57
-134 -50 -4 3 3 8 13 11 11 3 45 16 75 28 66 29 70 30 46 11z m284 -129 c0 -2
-8 -10 -17 -17 -16 -13 -17 -12 -4 4 13 16 21 21 21 13z m12 -46 c-12 -11 -25
-20 -30 -20 -5 0 -20 -10 -34 -22 -34 -31 -88 -61 -88 -50 0 9 43 40 92 67 10
5 18 13 18 17 0 5 6 8 14 8 7 0 19 7 26 15 7 9 15 13 18 10 3 -3 -4 -14 -16
-25z m-122 -25 c0 -6 -56 -35 -67 -35 -4 1 8 9 27 20 39 22 40 22 40 15z
m-455 -55 c-3 -5 -12 -10 -18 -10 -7 0 -6 4 3 10 19 12 23 12 15 0z m155 -140
c0 -5 -4 -10 -10 -10 -5 0 -10 5 -10 10 0 6 5 10 10 10 6 0 10 -4 10 -10z"/>
<path d="M4487 5274 c-4 -4 27 -26 67 -50 91 -53 133 -103 189 -225 37 -78 53
-101 97 -136 29 -24 57 -43 61 -43 5 0 6 26 3 58 -6 52 -4 61 20 89 14 17 26
37 26 45 0 26 -57 104 -101 140 -63 50 -74 55 -60 29 18 -33 6 -25 -44 28 -42
45 -49 49 -83 44 -23 -3 -53 1 -76 11 -39 16 -88 21 -99 10z"/>
<path d="M4346 5168 c9 -18 41 -58 70 -89 58 -60 66 -79 34 -79 -11 0 -20 -2
-20 -5 0 -8 91 -95 99 -95 4 0 12 14 18 30 6 17 18 30 27 30 25 0 19 15 -25
67 -79 95 -100 113 -160 143 l-60 31 17 -33z"/>
<path d="M4300 5130 c0 -5 5 -10 11 -10 5 0 7 5 4 10 -3 6 -8 10 -11 10 -2 0
-4 -4 -4 -10z"/>
<path d="M3295 4980 c-3 -6 1 -7 9 -4 18 7 21 14 7 14 -6 0 -13 -4 -16 -10z"/>
<path d="M2972 4125 c0 -16 2 -22 5 -12 2 9 2 23 0 30 -3 6 -5 -1 -5 -18z"/>
<path d="M2971 4034 c0 -11 3 -14 6 -6 3 7 2 16 -1 19 -3 4 -6 -2 -5 -13z"/>
<path d="M3085 3510 c13 -41 62 -135 79 -149 24 -20 21 -12 -30 80 -52 94 -60
105 -49 69z"/>
<path d="M4735 3400 c-3 -5 -1 -10 4 -10 6 0 11 5 11 10 0 6 -2 10 -4 10 -3 0
-8 -4 -11 -10z"/>
<path d="M4746 3370 c-15 -17 -49 -42 -75 -57 -63 -37 -174 -113 -164 -113 11
0 127 72 135 84 4 6 8 7 8 3 0 -5 13 1 29 12 16 12 32 21 36 21 8 0 65 62 65
72 0 12 -3 10 -34 -22z"/>
<path d="M4695 3360 c-3 -5 -1 -10 4 -10 6 0 11 5 11 10 0 6 -2 10 -4 10 -3 0
-8 -4 -11 -10z"/>
<path d="M3150 3334 c0 -17 28 -49 36 -41 4 4 -2 17 -14 30 -12 12 -22 17 -22
11z"/>
<path d="M4616 3315 c-11 -8 -15 -15 -9 -15 6 0 16 7 23 15 16 19 11 19 -14 0z"/>
<path d="M4750 3295 c-7 -8 -8 -15 -2 -15 5 0 15 7 22 15 7 8 8 15 2 15 -5 0
-15 -7 -22 -15z"/>
<path d="M4667 3233 c-60 -38 -70 -53 -21 -31 30 13 32 15 74 48 42 33 9 22
-53 -17z"/>
<path d="M3240 3226 c0 -9 5 -16 10 -16 6 0 10 4 10 9 0 6 -4 13 -10 16 -5 3
-10 -1 -10 -9z"/>
<path d="M4440 3175 c-14 -8 -20 -14 -14 -15 5 0 19 7 30 15 24 18 16 19 -16
0z"/>
<path d="M3360 3102 c0 -11 89 -86 95 -80 5 4 -60 68 -82 82 -7 4 -13 3 -13
-2z"/>
<path d="M3528 3058 c21 -26 242 -129 242 -113 0 3 -211 110 -245 124 -5 2 -4
-3 3 -11z"/>
<path d="M4325 3050 c-19 -8 -19 -9 2 -9 12 -1 25 4 28 9 7 12 -2 12 -30 0z"/>
<path d="M4277 3039 c7 -7 15 -10 18 -7 3 3 -2 9 -12 12 -14 6 -15 5 -6 -5z"/>
<path d="M4200 2890 c0 -5 7 -7 15 -4 8 4 15 8 15 10 0 2 -7 4 -15 4 -8 0 -15
-4 -15 -10z"/>
<path d="M4231 2846 c-7 -8 -5 -12 9 -13 24 -2 35 13 16 20 -8 3 -19 0 -25 -7z"/>
<path d="M3790 2840 c0 -8 64 -31 118 -43 43 -10 12 7 -54 29 -35 12 -64 18
-64 14z"/>
<path d="M4518 2774 c-3 -3 -20 -7 -38 -9 -34 -5 -47 -11 -38 -20 8 -9 98 16
98 26 0 10 -14 12 -22 3z"/>
<path d="M4355 2740 c3 -5 8 -10 11 -10 2 0 4 5 4 10 0 6 -5 10 -11 10 -5 0
-7 -4 -4 -10z"/>
<path d="M4385 2740 c3 -5 8 -10 11 -10 2 0 4 5 4 10 0 6 -5 10 -11 10 -5 0
-7 -4 -4 -10z"/>
<path d="M4460 1741 l-75 -6 86 -8 c47 -4 150 -7 230 -6 119 1 141 3 126 14
-18 13 -225 17 -367 6z"/>
<path d="M3778 1733 c34 -2 88 -2 120 0 31 2 3 3 -63 3 -66 0 -92 -1 -57 -3z"/>
<path d="M714 4819 c-7 -12 22 -40 40 -38 6 0 5 3 -1 6 -7 2 -13 11 -13 18 0
19 -17 28 -26 14z"/>
<path d="M6290 4780 c0 -5 9 -10 20 -10 11 0 20 5 20 10 0 6 -9 10 -20 10 -11
0 -20 -4 -20 -10z"/>
<path d="M6290 4725 c0 -8 7 -15 15 -15 8 0 15 7 15 15 0 8 -7 15 -15 15 -8 0
-15 -7 -15 -15z"/>
<path d="M6290 4680 c0 -5 7 -10 15 -10 8 0 15 5 15 10 0 6 -7 10 -15 10 -8 0
-15 -4 -15 -10z"/>
<path d="M6290 4640 c0 -5 7 -10 15 -10 8 0 15 5 15 10 0 6 -7 10 -15 10 -8 0
-15 -4 -15 -10z"/>
<path d="M6290 4580 c0 -5 7 -10 15 -10 8 0 15 5 15 10 0 6 -7 10 -15 10 -8 0
-15 -4 -15 -10z"/>
<path d="M6295 4550 c3 -5 10 -10 16 -10 5 0 9 5 9 10 0 6 -7 10 -16 10 -8 0
-12 -4 -9 -10z"/>
<path d="M6298 4523 c7 -3 16 -2 19 1 4 3 -2 6 -13 5 -11 0 -14 -3 -6 -6z"/>
<path d="M6297 4493 c-12 -11 -8 -23 8 -23 8 0 15 7 15 15 0 16 -12 20 -23 8z"/>
<path d="M6290 4440 c0 -5 7 -10 15 -10 8 0 15 5 15 10 0 6 -7 10 -15 10 -8 0
-15 -4 -15 -10z"/>
<path d="M6290 4400 c0 -5 7 -10 15 -10 8 0 15 5 15 10 0 6 -7 10 -15 10 -8 0
-15 -4 -15 -10z"/>
<path d="M6290 4370 c0 -5 7 -10 15 -10 8 0 15 5 15 10 0 6 -7 10 -15 10 -8 0
-15 -4 -15 -10z"/>
<path d="M6293 4330 c1 -11 7 -20 14 -20 7 0 13 9 13 20 0 11 -6 20 -14 20 -9
0 -14 -9 -13 -20z"/>
<path d="M6310 4286 c0 -9 -4 -16 -10 -16 -5 0 -10 -4 -10 -10 0 -5 6 -10 14
-10 16 0 28 37 15 46 -5 3 -9 -2 -9 -10z"/>
<path d="M820 4760 c0 -13 5 -20 13 -17 6 2 12 10 12 17 0 7 -6 15 -12 18 -8
2 -13 -5 -13 -18z"/>
<path d="M1314 4592 c-14 -8 -34 -76 -34 -114 0 -18 5 -28 15 -28 8 0 26 -18
40 -40 31 -49 42 -54 99 -46 41 7 45 10 65 58 26 63 26 80 0 104 -12 10 -27
31 -34 45 -12 23 -20 26 -77 27 -35 1 -68 -2 -74 -6z m176 -78 c11 -12 11 -18
-2 -31 -20 -20 -38 -9 -38 23 0 27 21 32 40 8z"/>
<path d="M2244 4519 c-10 -17 13 -36 27 -22 12 12 4 33 -11 33 -5 0 -12 -5
-16 -11z"/>
<path d="M7315 4570 c-16 -11 -42 -22 -57 -26 -30 -6 -36 -25 -15 -42 10 -9
25 0 62 38 54 55 56 60 10 30z"/>
<path d="M7480 4550 c0 -10 5 -42 11 -70 10 -45 13 -50 37 -50 15 0 36 7 46
15 11 8 30 15 42 15 79 0 -7 86 -103 103 -28 6 -33 4 -33 -13z"/>
<path d="M7650 4410 c-14 -11 -30 -20 -36 -20 -16 0 -84 -69 -84 -85 0 -10 15
-15 47 -17 60 -4 66 -23 24 -80 -35 -47 -30 -55 31 -56 22 -1 46 -6 54 -13 20
-17 27 -7 41 63 13 65 11 80 -9 60 -17 -17 -38 -15 -38 4 0 8 13 20 29 25 l29
10 -15 52 c-15 51 -29 77 -42 77 -3 0 -17 -9 -31 -20z"/>
<path d="M7245 4375 c-19 -49 -17 -145 4 -199 l11 -28 33 26 c17 15 40 30 50
33 14 4 17 12 12 27 -16 51 -17 69 -4 92 14 26 12 28 -62 77 l-27 18 -17 -46z
m35 -102 c0 -10 -4 -25 -10 -33 -8 -12 -10 -12 -16 3 -7 20 1 47 16 47 5 0 10
-8 10 -17z"/>
<path d="M7349 4160 l-24 -20 35 12 c44 14 61 28 33 28 -11 0 -31 -9 -44 -20z"/>
<path d="M7363 4117 c-35 -11 -63 -24 -63 -27 0 -4 20 -27 45 -53 53 -56 80
-61 89 -16 8 43 8 119 -1 118 -5 0 -36 -10 -70 -22z"/>
<path d="M7486 4131 c-3 -4 -8 -38 -12 -74 l-7 -67 48 0 c43 0 52 4 94 47 l46
46 -30 12 c-57 24 -135 44 -139 36z"/>
<path d="M680 4454 c0 -51 2 -55 22 -52 12 2 29 15 37 29 13 24 13 29 -2 53
-10 14 -26 26 -37 26 -18 0 -20 -7 -20 -56z"/>
<path d="M1257 4124 c-10 -10 -9 -42 2 -48 18 -11 42 6 39 28 -3 21 -28 33
-41 20z"/>
<path d="M2050 4115 l0 -65 44 0 45 0 6 44 c11 70 1 86 -51 86 l-44 0 0 -65z
m70 6 c0 -26 -5 -41 -16 -45 -25 -10 -34 2 -34 45 0 35 3 39 25 39 22 0 25 -4
25 -39z"/>
<path d="M6796 4090 c-2 -8 -14 -43 -26 -76 l-22 -62 23 -61 c12 -34 25 -64
29 -66 4 -3 20 24 35 59 25 59 26 67 15 102 -24 71 -49 119 -54 104z"/>
<path d="M922 4038 c-31 -31 8 -80 47 -58 24 13 31 30 19 53 -10 20 -48 23
-66 5z"/>
<path d="M1513 3773 c-20 -4 -23 -11 -23 -48 l0 -45 75 46 c41 25 75 47 75 50
0 5 -97 3 -127 -3z"/>
<path d="M1166 3754 c-77 -8 -141 -16 -143 -18 -2 -2 8 -37 21 -78 57 -169 59
-322 6 -480 -17 -51 -38 -103 -46 -116 -12 -18 -12 -23 -2 -26 7 -3 109 -7
226 -10 l212 -6 0 73 0 72 -48 38 c-26 21 -69 60 -97 85 -79 74 -83 76 -100
62 -17 -14 -65 -6 -65 12 0 6 8 17 18 24 16 13 16 15 0 28 -10 7 -18 21 -18
30 0 27 29 30 55 6 l24 -23 117 104 c64 56 118 109 121 116 3 7 2 38 -2 68
l-6 55 -67 -1 c-37 -1 -130 -7 -206 -15z"/>
<path d="M1680 3739 c-25 -16 -70 -43 -101 -59 -50 -26 -88 -56 -78 -63 2 -1
47 -42 100 -90 53 -48 101 -87 105 -87 5 0 20 9 34 20 28 22 70 27 70 8 0 -6
-11 -26 -25 -44 -21 -28 -23 -34 -10 -44 12 -10 13 -16 4 -26 -14 -17 -41 -18
-57 -2 -8 8 -30 -6 -88 -58 -42 -38 -92 -82 -111 -98 -33 -28 -34 -29 -31
-100 l3 -71 219 3 c121 1 221 4 223 6 2 2 -10 32 -26 68 -82 184 -83 448 -1
609 11 21 20 43 20 49 0 6 -38 10 -102 10 -98 0 -105 -2 -148 -31z m157 -254
c9 -24 -1 -27 -15 -5 -8 13 -8 20 -2 20 6 0 13 -7 17 -15z"/>
<path d="M1385 3522 c-28 -26 -70 -65 -94 -86 l-44 -39 54 -51 c72 -68 130
-116 141 -116 26 0 -2 85 -31 93 -49 12 -51 114 -3 144 15 10 30 22 34 28 10
13 10 63 0 69 -4 2 -30 -17 -57 -42z"/>
<path d="M1490 3521 c0 -23 5 -41 10 -41 25 0 60 -50 60 -85 0 -35 -28 -76
-59 -86 -8 -3 -11 -18 -9 -42 l3 -38 89 83 89 83 -64 62 c-35 34 -76 71 -91
83 l-28 21 0 -40z"/>
<path d="M877 3509 c-53 -12 -113 -45 -131 -71 -20 -28 -21 -87 -1 -114 31
-46 153 -78 245 -65 l45 6 7 60 c4 33 5 90 2 128 l-6 67 -62 -1 c-33 -1 -78
-5 -99 -10z m-56 -82 c-12 -30 -38 -36 -48 -10 -4 10 2 23 17 35 29 23 44 11
31 -25z"/>
<path d="M1885 3468 c-4 -29 -3 -87 2 -128 l8 -75 79 -3 c94 -3 163 16 206 60
92 91 -37 198 -241 198 l-48 0 -6 -52z"/>
<path d="M6927 3636 c-32 -13 -82 -43 -112 -65 -52 -39 -55 -44 -55 -85 0 -35
-6 -50 -30 -76 -26 -28 -36 -32 -69 -28 -29 2 -42 -1 -50 -14 -18 -29 -13 -36
42 -48 28 -7 60 -17 69 -22 14 -6 34 5 89 52 40 33 76 60 81 60 4 0 8 3 8 8 0
6 -49 28 -102 46 -10 3 -18 10 -18 16 0 23 92 3 140 -31 24 -16 26 -16 63 3
51 26 176 57 242 60 l53 3 -18 25 c-32 44 -84 89 -122 104 -55 23 -142 20
-211 -8z"/>
<path d="M6868 3353 c-37 -24 -82 -65 -101 -91 l-33 -47 183 0 c101 0 183 4
183 9 0 22 -109 141 -150 165 -11 6 -35 -5 -82 -36z"/>
<path d="M6527 3243 c-84 -143 -92 -160 -54 -126 35 33 140 84 184 90 30 4 44
12 56 33 l16 27 -75 17 c-41 9 -79 16 -84 16 -5 0 -24 -26 -43 -57z"/>
<path d="M6850 3181 l-35 -6 29 -22 c21 -17 42 -23 79 -23 34 0 61 7 86 23
l36 22 -50 7 c-60 8 -98 7 -145 -1z"/>
<path d="M6635 3018 c-19 -66 -19 -68 5 -68 18 0 20 7 20 60 0 33 -2 60 -5 60
-2 0 -11 -23 -20 -52z"/>
<path d="M6625 2758 c4 -18 12 -44 18 -58 11 -24 12 -22 15 19 4 52 -2 71 -23
71 -13 0 -15 -6 -10 -32z"/>
<path d="M2309 2497 c-25 -23 -96 -89 -158 -146 l-112 -103 3 -96 3 -96 163
-144 162 -143 92 83 c50 46 121 110 157 143 l66 60 5 99 5 99 -46 41 c-26 23
-96 87 -157 144 -61 56 -117 102 -124 102 -7 0 -34 -19 -59 -43z m132 -161
c74 -31 125 -118 114 -192 -12 -82 -99 -163 -175 -164 -87 0 -171 64 -187 142
-31 148 112 271 248 214z"/>
<path d="M2632 2421 l-53 -6 56 -55 55 -54 0 62 c0 34 -1 61 -2 60 -2 -1 -27
-4 -56 -7z"/>
<path d="M2040 2364 l0 -55 55 48 c30 26 55 51 55 56 0 4 -25 7 -55 7 l-55 0
0 -56z"/>
<path d="M1967 2190 c-22 -25 -21 -33 1 -53 28 -25 32 -21 32 28 0 50 -7 55
-33 25z"/>
<path d="M2740 2160 l0 -55 27 28 28 27 -28 27 -27 28 0 -55z"/>
<path d="M2627 1950 l-59 -58 49 -18 c26 -9 54 -22 61 -27 9 -7 12 9 12 77 0
47 -1 85 -2 85 -2 -1 -29 -27 -61 -59z"/>
<path d="M2040 1924 c0 -67 2 -75 18 -70 9 2 36 10 60 17 23 7 42 15 42 18 0
9 -104 111 -113 111 -4 0 -7 -34 -7 -76z"/>
<path d="M1392 2514 c-8 -16 -31 -109 -48 -191 -4 -19 2 -23 48 -32 32 -7 84
-8 133 -3 l80 7 27 75 c15 41 27 80 27 85 1 21 -103 55 -169 55 -37 0 -71 5
-77 11 -8 8 -14 6 -21 -7z m113 -90 c0 -10 -8 -20 -17 -22 -18 -3 -26 27 -11
42 12 11 28 0 28 -20z"/>
<path d="M825 2543 c-16 -8 -42 -27 -57 -40 l-27 -26 52 -44 c82 -70 100 -69
195 7 l53 43 -22 23 c-24 25 -78 54 -103 54 -10 0 -16 -9 -16 -23 0 -17 12
-29 48 -47 l47 -25 -38 -3 c-21 -2 -45 2 -52 8 -11 9 -19 8 -37 -4 -24 -17
-78 -22 -78 -7 0 5 8 12 19 16 27 8 71 51 71 70 0 19 -17 19 -55 -2z"/>
<path d="M715 2428 c-16 -72 -16 -73 55 -76 l65 -2 -53 50 c-29 27 -55 50 -57
50 -3 0 -7 -10 -10 -22z"/>
<path d="M1005 2405 c-22 -18 -36 -37 -32 -41 3 -4 29 -9 57 -12 45 -4 50 -3
50 16 0 27 -17 72 -27 72 -5 -1 -26 -16 -48 -35z"/>
<path d="M925 2350 c-3 -5 1 -10 10 -10 9 0 13 5 10 10 -3 6 -8 10 -10 10 -2
0 -7 -4 -10 -10z"/>
<path d="M700 2301 c0 -17 23 -72 29 -69 19 9 90 64 91 71 0 4 -27 7 -60 7
-33 0 -60 -4 -60 -9z"/>
<path d="M976 2302 c-3 -5 13 -25 35 -45 l41 -36 14 34 c8 19 14 39 14 45 0
12 -96 14 -104 2z"/>
<path d="M803 2247 c-34 -29 -62 -54 -62 -57 -2 -10 95 -70 112 -70 12 0 17 8
17 31 0 25 -6 33 -30 42 -16 6 -30 17 -30 24 0 16 11 16 42 3 26 -11 131 8
131 25 1 17 -64 55 -92 54 -16 0 -50 -20 -88 -52z"/>
<path d="M943 2193 c-32 -18 -43 -31 -43 -49 0 -33 25 -31 83 6 52 32 57 44
28 60 -23 12 -16 14 -68 -17z"/>
<path d="M5390 2275 c-26 -31 13 -82 44 -56 19 16 21 42 4 59 -16 16 -33 15
-48 -3z"/>
<path d="M5127 2065 l-58 -30 3 -54 c3 -53 4 -56 48 -82 57 -35 62 -35 112 -1
l42 27 -52 3 c-50 3 -52 4 -52 33 0 38 16 69 35 69 18 0 20 -21 3 -38 -18 -18
4 -34 43 -30 32 3 34 5 34 41 0 35 -4 40 -50 65 l-50 28 -58 -31z"/>
<path d="M1501 816 c-9 -11 -5 -15 21 -19 40 -6 45 -2 28 18 -16 19 -34 19
-49 1z"/>
<path d="M1447 774 c-4 -4 -17 -7 -29 -8 -17 -1 -30 -15 -50 -51 -40 -72 -38
-79 21 -71 44 6 50 4 56 -14 8 -24 -2 -43 -18 -34 -7 3 2 -5 18 -19 17 -14 44
-33 61 -43 30 -16 31 -16 82 21 53 37 62 50 40 57 -7 3 -9 12 -5 22 6 15 14
17 52 12 39 -6 45 -5 45 11 0 10 -14 39 -30 65 l-30 48 -91 -6 c-57 -3 -95 -1
-103 5 -7 6 -16 8 -19 5z"/>
<path d="M5922 1861 c-10 -6 6 -25 23 -27 6 -1 20 -5 33 -9 18 -5 22 -2 22 15
0 17 -4 20 -20 15 -11 -3 -20 -2 -20 3 0 10 -24 12 -38 3z"/>
<path d="M1372 1547 l-63 -63 59 -52 c33 -28 73 -62 90 -77 l30 -25 59 61 c32
33 59 64 61 68 2 7 -150 142 -167 149 -3 1 -35 -26 -69 -61z"/>
<path d="M5277 1594 c-10 -11 -8 -44 2 -44 6 0 13 4 16 10 8 12 -9 43 -18 34z"/>
<path d="M5251 1493 c-5 -21 -11 -51 -13 -68 -3 -30 -2 -30 51 -33 41 -2 52 0
49 10 -3 7 -13 39 -22 71 -13 44 -21 57 -36 57 -14 0 -22 -10 -29 -37z"/>
<path d="M5230 1350 c0 -5 24 -10 54 -10 30 0 58 5 61 10 4 6 -17 10 -54 10
-34 0 -61 -4 -61 -10z"/>
<path d="M5225 914 c0 -370 1 -386 19 -400 30 -21 62 -17 85 12 20 26 21 37
21 400 l0 374 -63 0 -62 0 0 -386z m89 331 c8 -42 7 -578 -1 -653 -6 -59 -27
-78 -49 -47 -11 15 -14 91 -14 377 l0 358 29 0 c25 0 30 -5 35 -35z"/>
<path d="M5940 1542 c0 -5 11 -13 25 -16 14 -4 23 -11 20 -16 -3 -5 -1 -11 5
-15 5 -3 10 -3 11 2 0 4 2 16 4 26 2 11 -3 17 -15 17 -10 0 -25 3 -34 6 -9 3
-16 2 -16 -4z"/>
<path d="M5970 1456 c0 -2 7 -9 15 -16 12 -10 15 -10 15 4 0 9 -7 16 -15 16
-8 0 -15 -2 -15 -4z"/>
<path d="M5950 1390 c0 -5 4 -10 9 -10 5 0 16 -3 25 -6 11 -4 16 -1 16 10 0
10 -9 16 -25 16 -14 0 -25 -4 -25 -10z"/>
<path d="M5960 1340 c0 -5 5 -10 10 -10 6 0 10 5 10 10 0 6 -4 10 -10 10 -5 0
-10 -4 -10 -10z"/>
<path d="M5990 1339 c0 -5 5 -7 10 -4 6 3 10 8 10 11 0 2 -4 4 -10 4 -5 0 -10
-5 -10 -11z"/>
<path d="M5713 1292 c-13 -2 -23 -9 -23 -16 0 -10 35 -14 155 -15 103 -1 155
2 155 8 0 6 0 14 0 19 0 7 -241 10 -287 4z"/>
<path d="M5948 1233 c7 -3 16 -2 19 1 4 3 -2 6 -13 5 -11 0 -14 -3 -6 -6z"/>
<path d="M5930 1171 c0 -5 16 -11 35 -13 24 -3 35 0 35 9 0 8 -13 13 -35 13
-19 0 -35 -4 -35 -9z"/>
<path d="M5945 1110 c-3 -5 0 -10 9 -10 8 0 21 -3 30 -6 11 -4 16 -1 16 10 0
18 -45 23 -55 6z"/>
<path d="M5950 1060 c0 -5 11 -10 25 -10 14 0 25 5 25 10 0 6 -11 10 -25 10
-14 0 -25 -4 -25 -10z"/>
<path d="M5956 1011 c-3 -5 1 -12 10 -15 25 -10 34 -7 34 9 0 16 -35 21 -44 6z"/>
<path d="M5986 961 c-3 -5 -16 -7 -28 -3 -15 3 -19 2 -14 -7 9 -14 58 -9 64 7
4 14 -14 16 -22 3z"/>
<path d="M5865 900 c-3 -6 4 -10 18 -10 13 0 44 -3 69 -6 36 -5 46 -3 51 10 6
14 -3 16 -63 16 -38 0 -72 -4 -75 -10z"/>
<path d="M5987 803 c-4 -7 -15 -10 -25 -6 -10 3 -8 -1 6 -12 26 -19 36 -15 30
12 -2 12 -6 14 -11 6z"/>
<path d="M7615 1510 c-3 -5 -2 -10 4 -10 5 0 13 5 16 10 3 6 2 10 -4 10 -5 0
-13 -4 -16 -10z"/>
<path d="M7635 1440 c3 -5 8 -10 11 -10 2 0 4 5 4 10 0 6 -5 10 -11 10 -5 0
-7 -4 -4 -10z"/>
<path d="M7665 1430 c-3 -5 1 -10 10 -10 9 0 13 5 10 10 -3 6 -8 10 -10 10 -2
0 -7 -4 -10 -10z"/>
<path d="M3730 1337 c-23 -8 -42 -25 -57 -52 -22 -39 -23 -48 -23 -318 0 -302
3 -325 55 -365 28 -22 29 -22 567 -22 601 0 596 -1 623 64 12 28 15 93 15 323
0 327 -4 347 -70 370 -50 17 -1060 17 -1110 0z m1021 -85 c41 -46 41 -108 0
-154 l-29 -33 -441 0 -441 0 -26 26 c-52 53 -35 163 29 189 12 5 208 8 450 7
l429 -2 29 -33z m43 -297 l1 -40 -520 0 -520 0 -1 35 c-1 19 1 38 3 43 2 4
237 6 520 5 l516 -3 1 -40z m-43 -134 c31 -32 38 -79 18 -124 -22 -48 -22 -48
-492 -47 -436 0 -441 1 -464 22 -31 29 -39 78 -19 116 33 64 17 62 494 62
l434 0 29 -29z"/>
<path d="M3878 1252 c-46 -6 -72 -65 -52 -116 11 -30 23 -16 26 32 l3 47 420
5 c231 3 426 3 433 1 14 -4 16 -35 2 -61 -7 -13 -6 -19 5 -24 35 -13 47 72 15
104 -19 19 -33 19 -422 17 -222 -1 -415 -3 -430 -5z"/>
<path d="M3840 790 c-20 -20 -25 -54 -13 -86 5 -13 9 -6 17 27 l11 44 203 3
c170 2 202 5 202 17 0 13 -30 15 -200 15 -187 0 -201 -1 -220 -20z"/>
<path d="M4667 803 c-14 -14 -6 -22 21 -20 25 2 27 -1 30 -40 3 -44 15 -56 26
-27 11 28 6 62 -10 78 -16 16 -55 22 -67 9z"/>
<path d="M6796 817 c3 -10 9 -15 12 -12 3 3 0 11 -7 18 -10 9 -11 8 -5 -6z"/>
</g>
</svg>
